<?xml version="1.0" encoding="utf-8"?>
<svg xmlns="http://www.w3.org/2000/svg" xmlns:xlink="http://www.w3.org/1999/xlink" width="528" height="336" viewBox="0 0 2112 1344">
<defs>
  <clipPath id="clip060">
    <rect x="0" y="0" width="2112" height="1344"/>
  </clipPath>
</defs>
<path clip-path="url(#clip060)" d="M0 1344 L2112 1344 L2112 2.13163e-14 L0 2.13163e-14  Z" fill="#ffffff" fill-rule="evenodd" fill-opacity="1"/>
<defs>
  <clipPath id="clip061">
    <rect x="422" y="0" width="1479" height="1344"/>
  </clipPath>
</defs>
<path clip-path="url(#clip060)" d="M363.846 1234.58 L2064.76 1234.58 L2064.76 47.2441 L363.846 47.2441  Z" fill="#ffffff" fill-rule="evenodd" fill-opacity="1"/>
<defs>
  <clipPath id="clip062">
    <rect x="363" y="47" width="1702" height="1188"/>
  </clipPath>
</defs>
<polyline clip-path="url(#clip062)" style="stroke:#000000; stroke-linecap:round; stroke-linejoin:round; stroke-width:2; stroke-opacity:0.1; fill:none" points="411.985,1234.58 411.985,47.2441 "/>
<polyline clip-path="url(#clip062)" style="stroke:#000000; stroke-linecap:round; stroke-linejoin:round; stroke-width:2; stroke-opacity:0.1; fill:none" points="808.735,1234.58 808.735,47.2441 "/>
<polyline clip-path="url(#clip062)" style="stroke:#000000; stroke-linecap:round; stroke-linejoin:round; stroke-width:2; stroke-opacity:0.1; fill:none" points="1209.89,1234.58 1209.89,47.2441 "/>
<polyline clip-path="url(#clip062)" style="stroke:#000000; stroke-linecap:round; stroke-linejoin:round; stroke-width:2; stroke-opacity:0.1; fill:none" points="1615.46,1234.58 1615.46,47.2441 "/>
<polyline clip-path="url(#clip062)" style="stroke:#000000; stroke-linecap:round; stroke-linejoin:round; stroke-width:2; stroke-opacity:0.1; fill:none" points="2021.03,1234.58 2021.03,47.2441 "/>
<polyline clip-path="url(#clip062)" style="stroke:#000000; stroke-linecap:round; stroke-linejoin:round; stroke-width:2; stroke-opacity:0.1; fill:none" points="363.846,1200.97 2064.76,1200.97 "/>
<polyline clip-path="url(#clip062)" style="stroke:#000000; stroke-linecap:round; stroke-linejoin:round; stroke-width:2; stroke-opacity:0.1; fill:none" points="363.846,1034.73 2064.76,1034.73 "/>
<polyline clip-path="url(#clip062)" style="stroke:#000000; stroke-linecap:round; stroke-linejoin:round; stroke-width:2; stroke-opacity:0.1; fill:none" points="363.846,868.483 2064.76,868.483 "/>
<polyline clip-path="url(#clip062)" style="stroke:#000000; stroke-linecap:round; stroke-linejoin:round; stroke-width:2; stroke-opacity:0.1; fill:none" points="363.846,702.237 2064.76,702.237 "/>
<polyline clip-path="url(#clip062)" style="stroke:#000000; stroke-linecap:round; stroke-linejoin:round; stroke-width:2; stroke-opacity:0.1; fill:none" points="363.846,535.992 2064.76,535.992 "/>
<polyline clip-path="url(#clip062)" style="stroke:#000000; stroke-linecap:round; stroke-linejoin:round; stroke-width:2; stroke-opacity:0.1; fill:none" points="363.846,369.746 2064.76,369.746 "/>
<polyline clip-path="url(#clip062)" style="stroke:#000000; stroke-linecap:round; stroke-linejoin:round; stroke-width:2; stroke-opacity:0.1; fill:none" points="363.846,203.5 2064.76,203.5 "/>
<polyline clip-path="url(#clip060)" style="stroke:#000000; stroke-linecap:round; stroke-linejoin:round; stroke-width:4; stroke-opacity:1; fill:none" points="363.846,1234.58 2064.76,1234.58 "/>
<polyline clip-path="url(#clip060)" style="stroke:#000000; stroke-linecap:round; stroke-linejoin:round; stroke-width:4; stroke-opacity:1; fill:none" points="411.985,1234.58 411.985,1215.68 "/>
<polyline clip-path="url(#clip060)" style="stroke:#000000; stroke-linecap:round; stroke-linejoin:round; stroke-width:4; stroke-opacity:1; fill:none" points="808.735,1234.58 808.735,1215.68 "/>
<polyline clip-path="url(#clip060)" style="stroke:#000000; stroke-linecap:round; stroke-linejoin:round; stroke-width:4; stroke-opacity:1; fill:none" points="1209.89,1234.58 1209.89,1215.68 "/>
<polyline clip-path="url(#clip060)" style="stroke:#000000; stroke-linecap:round; stroke-linejoin:round; stroke-width:4; stroke-opacity:1; fill:none" points="1615.46,1234.58 1615.46,1215.68 "/>
<polyline clip-path="url(#clip060)" style="stroke:#000000; stroke-linecap:round; stroke-linejoin:round; stroke-width:4; stroke-opacity:1; fill:none" points="2021.03,1234.58 2021.03,1215.68 "/>
<path clip-path="url(#clip060)" d="M279.694 1290.74 L287.333 1290.74 L287.333 1264.37 L279.023 1266.04 L279.023 1261.78 L287.287 1260.11 L291.962 1260.11 L291.962 1290.74 L299.601 1290.74 L299.601 1294.67 L279.694 1294.67 L279.694 1290.74 Z" fill="#000000" fill-rule="nonzero" fill-opacity="1" /><path clip-path="url(#clip060)" d="M309.185 1293.96 L309.185 1289.7 Q310.944 1290.53 312.749 1290.97 Q314.555 1291.41 316.291 1291.41 Q320.921 1291.41 323.351 1288.31 Q325.805 1285.18 326.152 1278.84 Q324.81 1280.83 322.749 1281.9 Q320.689 1282.96 318.189 1282.96 Q313.004 1282.96 309.972 1279.84 Q306.962 1276.69 306.962 1271.25 Q306.962 1265.92 310.111 1262.71 Q313.259 1259.49 318.49 1259.49 Q324.485 1259.49 327.634 1264.1 Q330.805 1268.68 330.805 1277.43 Q330.805 1285.6 326.916 1290.48 Q323.05 1295.35 316.499 1295.35 Q314.74 1295.35 312.935 1295 Q311.129 1294.65 309.185 1293.96 M318.49 1279.3 Q321.638 1279.3 323.467 1277.15 Q325.319 1275 325.319 1271.25 Q325.319 1267.52 323.467 1265.37 Q321.638 1263.19 318.49 1263.19 Q315.342 1263.19 313.49 1265.37 Q311.661 1267.52 311.661 1271.25 Q311.661 1275 313.49 1277.15 Q315.342 1279.3 318.49 1279.3 Z" fill="#000000" fill-rule="nonzero" fill-opacity="1" /><path clip-path="url(#clip060)" d="M349.208 1278.26 Q345.874 1278.26 343.953 1280.05 Q342.055 1281.83 342.055 1284.95 Q342.055 1288.08 343.953 1289.86 Q345.874 1291.64 349.208 1291.64 Q352.541 1291.64 354.462 1289.86 Q356.383 1288.05 356.383 1284.95 Q356.383 1281.83 354.462 1280.05 Q352.564 1278.26 349.208 1278.26 M344.532 1276.27 Q341.522 1275.53 339.833 1273.47 Q338.166 1271.41 338.166 1268.45 Q338.166 1264.3 341.106 1261.9 Q344.069 1259.49 349.208 1259.49 Q354.37 1259.49 357.309 1261.9 Q360.249 1264.3 360.249 1268.45 Q360.249 1271.41 358.559 1273.47 Q356.893 1275.53 353.907 1276.27 Q357.286 1277.06 359.161 1279.35 Q361.059 1281.64 361.059 1284.95 Q361.059 1289.98 357.981 1292.66 Q354.925 1295.35 349.208 1295.35 Q343.49 1295.35 340.411 1292.66 Q337.356 1289.98 337.356 1284.95 Q337.356 1281.64 339.254 1279.35 Q341.152 1277.06 344.532 1276.27 M342.819 1268.89 Q342.819 1271.57 344.485 1273.08 Q346.175 1274.58 349.208 1274.58 Q352.217 1274.58 353.907 1273.08 Q355.62 1271.57 355.62 1268.89 Q355.62 1266.2 353.907 1264.7 Q352.217 1263.19 349.208 1263.19 Q346.175 1263.19 344.485 1264.7 Q342.819 1266.2 342.819 1268.89 Z" fill="#000000" fill-rule="nonzero" fill-opacity="1" /><path clip-path="url(#clip060)" d="M370.18 1290.74 L377.818 1290.74 L377.818 1264.37 L369.508 1266.04 L369.508 1261.78 L377.772 1260.11 L382.448 1260.11 L382.448 1290.74 L390.087 1290.74 L390.087 1294.67 L370.18 1294.67 L370.18 1290.74 Z" fill="#000000" fill-rule="nonzero" fill-opacity="1" /><path clip-path="url(#clip060)" d="M396.777 1279.79 L409.254 1279.79 L409.254 1283.59 L396.777 1283.59 L396.777 1279.79 Z" fill="#000000" fill-rule="nonzero" fill-opacity="1" /><path clip-path="url(#clip060)" d="M426.638 1263.19 Q423.027 1263.19 421.198 1266.76 Q419.392 1270.3 419.392 1277.43 Q419.392 1284.54 421.198 1288.1 Q423.027 1291.64 426.638 1291.64 Q430.272 1291.64 432.077 1288.1 Q433.906 1284.54 433.906 1277.43 Q433.906 1270.3 432.077 1266.76 Q430.272 1263.19 426.638 1263.19 M426.638 1259.49 Q432.448 1259.49 435.503 1264.1 Q438.582 1268.68 438.582 1277.43 Q438.582 1286.16 435.503 1290.76 Q432.448 1295.35 426.638 1295.35 Q420.828 1295.35 417.749 1290.76 Q414.693 1286.16 414.693 1277.43 Q414.693 1268.68 417.749 1264.1 Q420.828 1259.49 426.638 1259.49 Z" fill="#000000" fill-rule="nonzero" fill-opacity="1" /><path clip-path="url(#clip060)" d="M447.61 1290.74 L455.249 1290.74 L455.249 1264.37 L446.938 1266.04 L446.938 1261.78 L455.202 1260.11 L459.878 1260.11 L459.878 1290.74 L467.517 1290.74 L467.517 1294.67 L447.61 1294.67 L447.61 1290.74 Z" fill="#000000" fill-rule="nonzero" fill-opacity="1" /><path clip-path="url(#clip060)" d="M474.207 1279.79 L486.684 1279.79 L486.684 1283.59 L474.207 1283.59 L474.207 1279.79 Z" fill="#000000" fill-rule="nonzero" fill-opacity="1" /><path clip-path="url(#clip060)" d="M504.068 1263.19 Q500.457 1263.19 498.628 1266.76 Q496.822 1270.3 496.822 1277.43 Q496.822 1284.54 498.628 1288.1 Q500.457 1291.64 504.068 1291.64 Q507.702 1291.64 509.508 1288.1 Q511.336 1284.54 511.336 1277.43 Q511.336 1270.3 509.508 1266.76 Q507.702 1263.19 504.068 1263.19 M504.068 1259.49 Q509.878 1259.49 512.934 1264.1 Q516.012 1268.68 516.012 1277.43 Q516.012 1286.16 512.934 1290.76 Q509.878 1295.35 504.068 1295.35 Q498.258 1295.35 495.179 1290.76 Q492.123 1286.16 492.123 1277.43 Q492.123 1268.68 495.179 1264.1 Q498.258 1259.49 504.068 1259.49 Z" fill="#000000" fill-rule="nonzero" fill-opacity="1" /><path clip-path="url(#clip060)" d="M525.04 1290.74 L532.679 1290.74 L532.679 1264.37 L524.369 1266.04 L524.369 1261.78 L532.632 1260.11 L537.308 1260.11 L537.308 1290.74 L544.947 1290.74 L544.947 1294.67 L525.04 1294.67 L525.04 1290.74 Z" fill="#000000" fill-rule="nonzero" fill-opacity="1" /><path clip-path="url(#clip060)" d="M676.444 1290.74 L684.083 1290.74 L684.083 1264.37 L675.772 1266.04 L675.772 1261.78 L684.036 1260.11 L688.712 1260.11 L688.712 1290.74 L696.351 1290.74 L696.351 1294.67 L676.444 1294.67 L676.444 1290.74 Z" fill="#000000" fill-rule="nonzero" fill-opacity="1" /><path clip-path="url(#clip060)" d="M705.934 1293.96 L705.934 1289.7 Q707.694 1290.53 709.499 1290.97 Q711.305 1291.41 713.041 1291.41 Q717.67 1291.41 720.101 1288.31 Q722.555 1285.18 722.902 1278.84 Q721.559 1280.83 719.499 1281.9 Q717.439 1282.96 714.939 1282.96 Q709.754 1282.96 706.721 1279.84 Q703.712 1276.69 703.712 1271.25 Q703.712 1265.92 706.86 1262.71 Q710.008 1259.49 715.24 1259.49 Q721.235 1259.49 724.383 1264.1 Q727.555 1268.68 727.555 1277.43 Q727.555 1285.6 723.666 1290.48 Q719.8 1295.35 713.249 1295.35 Q711.49 1295.35 709.684 1295 Q707.879 1294.65 705.934 1293.96 M715.24 1279.3 Q718.388 1279.3 720.217 1277.15 Q722.068 1275 722.068 1271.25 Q722.068 1267.52 720.217 1265.37 Q718.388 1263.19 715.24 1263.19 Q712.092 1263.19 710.24 1265.37 Q708.411 1267.52 708.411 1271.25 Q708.411 1275 710.24 1277.15 Q712.092 1279.3 715.24 1279.3 Z" fill="#000000" fill-rule="nonzero" fill-opacity="1" /><path clip-path="url(#clip060)" d="M745.957 1278.26 Q742.624 1278.26 740.703 1280.05 Q738.804 1281.83 738.804 1284.95 Q738.804 1288.08 740.703 1289.86 Q742.624 1291.64 745.957 1291.64 Q749.291 1291.64 751.212 1289.86 Q753.133 1288.05 753.133 1284.95 Q753.133 1281.83 751.212 1280.05 Q749.314 1278.26 745.957 1278.26 M741.281 1276.27 Q738.272 1275.53 736.582 1273.47 Q734.916 1271.41 734.916 1268.45 Q734.916 1264.3 737.855 1261.9 Q740.818 1259.49 745.957 1259.49 Q751.119 1259.49 754.059 1261.9 Q756.999 1264.3 756.999 1268.45 Q756.999 1271.41 755.309 1273.47 Q753.642 1275.53 750.656 1276.27 Q754.036 1277.06 755.911 1279.35 Q757.809 1281.64 757.809 1284.95 Q757.809 1289.98 754.73 1292.66 Q751.675 1295.35 745.957 1295.35 Q740.24 1295.35 737.161 1292.66 Q734.105 1289.98 734.105 1284.95 Q734.105 1281.64 736.004 1279.35 Q737.902 1277.06 741.281 1276.27 M739.568 1268.89 Q739.568 1271.57 741.235 1273.08 Q742.925 1274.58 745.957 1274.58 Q748.966 1274.58 750.656 1273.08 Q752.369 1271.57 752.369 1268.89 Q752.369 1266.2 750.656 1264.7 Q748.966 1263.19 745.957 1263.19 Q742.925 1263.19 741.235 1264.7 Q739.568 1266.2 739.568 1268.89 Z" fill="#000000" fill-rule="nonzero" fill-opacity="1" /><path clip-path="url(#clip060)" d="M766.929 1290.74 L774.568 1290.74 L774.568 1264.37 L766.258 1266.04 L766.258 1261.78 L774.522 1260.11 L779.198 1260.11 L779.198 1290.74 L786.837 1290.74 L786.837 1294.67 L766.929 1294.67 L766.929 1290.74 Z" fill="#000000" fill-rule="nonzero" fill-opacity="1" /><path clip-path="url(#clip060)" d="M793.526 1279.79 L806.003 1279.79 L806.003 1283.59 L793.526 1283.59 L793.526 1279.79 Z" fill="#000000" fill-rule="nonzero" fill-opacity="1" /><path clip-path="url(#clip060)" d="M823.387 1263.19 Q819.776 1263.19 817.948 1266.76 Q816.142 1270.3 816.142 1277.43 Q816.142 1284.54 817.948 1288.1 Q819.776 1291.64 823.387 1291.64 Q827.022 1291.64 828.827 1288.1 Q830.656 1284.54 830.656 1277.43 Q830.656 1270.3 828.827 1266.76 Q827.022 1263.19 823.387 1263.19 M823.387 1259.49 Q829.197 1259.49 832.253 1264.1 Q835.332 1268.68 835.332 1277.43 Q835.332 1286.16 832.253 1290.76 Q829.197 1295.35 823.387 1295.35 Q817.577 1295.35 814.498 1290.76 Q811.443 1286.16 811.443 1277.43 Q811.443 1268.68 814.498 1264.1 Q817.577 1259.49 823.387 1259.49 Z" fill="#000000" fill-rule="nonzero" fill-opacity="1" /><path clip-path="url(#clip060)" d="M856.396 1264.19 L844.591 1282.64 L856.396 1282.64 L856.396 1264.19 M855.17 1260.11 L861.049 1260.11 L861.049 1282.64 L865.98 1282.64 L865.98 1286.53 L861.049 1286.53 L861.049 1294.67 L856.396 1294.67 L856.396 1286.53 L840.795 1286.53 L840.795 1282.01 L855.17 1260.11 Z" fill="#000000" fill-rule="nonzero" fill-opacity="1" /><path clip-path="url(#clip060)" d="M870.957 1279.79 L883.433 1279.79 L883.433 1283.59 L870.957 1283.59 L870.957 1279.79 Z" fill="#000000" fill-rule="nonzero" fill-opacity="1" /><path clip-path="url(#clip060)" d="M900.817 1263.19 Q897.206 1263.19 895.378 1266.76 Q893.572 1270.3 893.572 1277.43 Q893.572 1284.54 895.378 1288.1 Q897.206 1291.64 900.817 1291.64 Q904.452 1291.64 906.257 1288.1 Q908.086 1284.54 908.086 1277.43 Q908.086 1270.3 906.257 1266.76 Q904.452 1263.19 900.817 1263.19 M900.817 1259.49 Q906.628 1259.49 909.683 1264.1 Q912.762 1268.68 912.762 1277.43 Q912.762 1286.16 909.683 1290.76 Q906.628 1295.35 900.817 1295.35 Q895.007 1295.35 891.929 1290.76 Q888.873 1286.16 888.873 1277.43 Q888.873 1268.68 891.929 1264.1 Q895.007 1259.49 900.817 1259.49 Z" fill="#000000" fill-rule="nonzero" fill-opacity="1" /><path clip-path="url(#clip060)" d="M921.79 1290.74 L929.428 1290.74 L929.428 1264.37 L921.118 1266.04 L921.118 1261.78 L929.382 1260.11 L934.058 1260.11 L934.058 1290.74 L941.697 1290.74 L941.697 1294.67 L921.79 1294.67 L921.79 1290.74 Z" fill="#000000" fill-rule="nonzero" fill-opacity="1" /><path clip-path="url(#clip060)" d="M1077.6 1290.74 L1085.24 1290.74 L1085.24 1264.37 L1076.93 1266.04 L1076.93 1261.78 L1085.19 1260.11 L1089.87 1260.11 L1089.87 1290.74 L1097.51 1290.74 L1097.51 1294.67 L1077.6 1294.67 L1077.6 1290.74 Z" fill="#000000" fill-rule="nonzero" fill-opacity="1" /><path clip-path="url(#clip060)" d="M1107.09 1293.96 L1107.09 1289.7 Q1108.85 1290.53 1110.66 1290.97 Q1112.46 1291.41 1114.2 1291.41 Q1118.83 1291.41 1121.26 1288.31 Q1123.71 1285.18 1124.06 1278.84 Q1122.72 1280.83 1120.66 1281.9 Q1118.6 1282.96 1116.1 1282.96 Q1110.91 1282.96 1107.88 1279.84 Q1104.87 1276.69 1104.87 1271.25 Q1104.87 1265.92 1108.02 1262.71 Q1111.17 1259.49 1116.4 1259.49 Q1122.39 1259.49 1125.54 1264.1 Q1128.71 1268.68 1128.71 1277.43 Q1128.71 1285.6 1124.82 1290.48 Q1120.96 1295.35 1114.41 1295.35 Q1112.65 1295.35 1110.84 1295 Q1109.04 1294.65 1107.09 1293.96 M1116.4 1279.3 Q1119.55 1279.3 1121.37 1277.15 Q1123.23 1275 1123.23 1271.25 Q1123.23 1267.52 1121.37 1265.37 Q1119.55 1263.19 1116.4 1263.19 Q1113.25 1263.19 1111.4 1265.37 Q1109.57 1267.52 1109.57 1271.25 Q1109.57 1275 1111.4 1277.15 Q1113.25 1279.3 1116.4 1279.3 Z" fill="#000000" fill-rule="nonzero" fill-opacity="1" /><path clip-path="url(#clip060)" d="M1147.12 1278.26 Q1143.78 1278.26 1141.86 1280.05 Q1139.96 1281.83 1139.96 1284.95 Q1139.96 1288.08 1141.86 1289.86 Q1143.78 1291.64 1147.12 1291.64 Q1150.45 1291.64 1152.37 1289.86 Q1154.29 1288.05 1154.29 1284.95 Q1154.29 1281.83 1152.37 1280.05 Q1150.47 1278.26 1147.12 1278.26 M1142.44 1276.27 Q1139.43 1275.53 1137.74 1273.47 Q1136.07 1271.41 1136.07 1268.45 Q1136.07 1264.3 1139.01 1261.9 Q1141.98 1259.49 1147.12 1259.49 Q1152.28 1259.49 1155.22 1261.9 Q1158.16 1264.3 1158.16 1268.45 Q1158.16 1271.41 1156.47 1273.47 Q1154.8 1275.53 1151.81 1276.27 Q1155.19 1277.06 1157.07 1279.35 Q1158.97 1281.64 1158.97 1284.95 Q1158.97 1289.98 1155.89 1292.66 Q1152.83 1295.35 1147.12 1295.35 Q1141.4 1295.35 1138.32 1292.66 Q1135.26 1289.98 1135.26 1284.95 Q1135.26 1281.64 1137.16 1279.35 Q1139.06 1277.06 1142.44 1276.27 M1140.73 1268.89 Q1140.73 1271.57 1142.39 1273.08 Q1144.08 1274.58 1147.12 1274.58 Q1150.12 1274.58 1151.81 1273.08 Q1153.53 1271.57 1153.53 1268.89 Q1153.53 1266.2 1151.81 1264.7 Q1150.12 1263.19 1147.12 1263.19 Q1144.08 1263.19 1142.39 1264.7 Q1140.73 1266.2 1140.73 1268.89 Z" fill="#000000" fill-rule="nonzero" fill-opacity="1" /><path clip-path="url(#clip060)" d="M1168.09 1290.74 L1175.73 1290.74 L1175.73 1264.37 L1167.42 1266.04 L1167.42 1261.78 L1175.68 1260.11 L1180.36 1260.11 L1180.36 1290.74 L1187.99 1290.74 L1187.99 1294.67 L1168.09 1294.67 L1168.09 1290.74 Z" fill="#000000" fill-rule="nonzero" fill-opacity="1" /><path clip-path="url(#clip060)" d="M1194.68 1279.79 L1207.16 1279.79 L1207.16 1283.59 L1194.68 1283.59 L1194.68 1279.79 Z" fill="#000000" fill-rule="nonzero" fill-opacity="1" /><path clip-path="url(#clip060)" d="M1224.55 1263.19 Q1220.93 1263.19 1219.11 1266.76 Q1217.3 1270.3 1217.3 1277.43 Q1217.3 1284.54 1219.11 1288.1 Q1220.93 1291.64 1224.55 1291.64 Q1228.18 1291.64 1229.99 1288.1 Q1231.81 1284.54 1231.81 1277.43 Q1231.81 1270.3 1229.99 1266.76 Q1228.18 1263.19 1224.55 1263.19 M1224.55 1259.49 Q1230.36 1259.49 1233.41 1264.1 Q1236.49 1268.68 1236.49 1277.43 Q1236.49 1286.16 1233.41 1290.76 Q1230.36 1295.35 1224.55 1295.35 Q1218.74 1295.35 1215.66 1290.76 Q1212.6 1286.16 1212.6 1277.43 Q1212.6 1268.68 1215.66 1264.1 Q1218.74 1259.49 1224.55 1259.49 Z" fill="#000000" fill-rule="nonzero" fill-opacity="1" /><path clip-path="url(#clip060)" d="M1243.53 1260.11 L1265.75 1260.11 L1265.75 1262.11 L1253.2 1294.67 L1248.32 1294.67 L1260.12 1264.05 L1243.53 1264.05 L1243.53 1260.11 Z" fill="#000000" fill-rule="nonzero" fill-opacity="1" /><path clip-path="url(#clip060)" d="M1272.11 1279.79 L1284.59 1279.79 L1284.59 1283.59 L1272.11 1283.59 L1272.11 1279.79 Z" fill="#000000" fill-rule="nonzero" fill-opacity="1" /><path clip-path="url(#clip060)" d="M1301.98 1263.19 Q1298.36 1263.19 1296.54 1266.76 Q1294.73 1270.3 1294.73 1277.43 Q1294.73 1284.54 1296.54 1288.1 Q1298.36 1291.64 1301.98 1291.64 Q1305.61 1291.64 1307.42 1288.1 Q1309.24 1284.54 1309.24 1277.43 Q1309.24 1270.3 1307.42 1266.76 Q1305.61 1263.19 1301.98 1263.19 M1301.98 1259.49 Q1307.79 1259.49 1310.84 1264.1 Q1313.92 1268.68 1313.92 1277.43 Q1313.92 1286.16 1310.84 1290.76 Q1307.79 1295.35 1301.98 1295.35 Q1296.17 1295.35 1293.09 1290.76 Q1290.03 1286.16 1290.03 1277.43 Q1290.03 1268.68 1293.09 1264.1 Q1296.17 1259.49 1301.98 1259.49 Z" fill="#000000" fill-rule="nonzero" fill-opacity="1" /><path clip-path="url(#clip060)" d="M1322.95 1290.74 L1330.59 1290.74 L1330.59 1264.37 L1322.28 1266.04 L1322.28 1261.78 L1330.54 1260.11 L1335.22 1260.11 L1335.22 1290.74 L1342.85 1290.74 L1342.85 1294.67 L1322.95 1294.67 L1322.95 1290.74 Z" fill="#000000" fill-rule="nonzero" fill-opacity="1" /><path clip-path="url(#clip060)" d="M1483.17 1290.74 L1490.81 1290.74 L1490.81 1264.37 L1482.5 1266.04 L1482.5 1261.78 L1490.76 1260.11 L1495.44 1260.11 L1495.44 1290.74 L1503.08 1290.74 L1503.08 1294.67 L1483.17 1294.67 L1483.17 1290.74 Z" fill="#000000" fill-rule="nonzero" fill-opacity="1" /><path clip-path="url(#clip060)" d="M1512.66 1293.96 L1512.66 1289.7 Q1514.42 1290.53 1516.22 1290.97 Q1518.03 1291.41 1519.77 1291.41 Q1524.39 1291.41 1526.83 1288.31 Q1529.28 1285.18 1529.63 1278.84 Q1528.28 1280.83 1526.22 1281.9 Q1524.16 1282.96 1521.66 1282.96 Q1516.48 1282.96 1513.45 1279.84 Q1510.44 1276.69 1510.44 1271.25 Q1510.44 1265.92 1513.58 1262.71 Q1516.73 1259.49 1521.96 1259.49 Q1527.96 1259.49 1531.11 1264.1 Q1534.28 1268.68 1534.28 1277.43 Q1534.28 1285.6 1530.39 1290.48 Q1526.52 1295.35 1519.97 1295.35 Q1518.21 1295.35 1516.41 1295 Q1514.6 1294.65 1512.66 1293.96 M1521.96 1279.3 Q1525.11 1279.3 1526.94 1277.15 Q1528.79 1275 1528.79 1271.25 Q1528.79 1267.52 1526.94 1265.37 Q1525.11 1263.19 1521.96 1263.19 Q1518.82 1263.19 1516.96 1265.37 Q1515.14 1267.52 1515.14 1271.25 Q1515.14 1275 1516.96 1277.15 Q1518.82 1279.3 1521.96 1279.3 Z" fill="#000000" fill-rule="nonzero" fill-opacity="1" /><path clip-path="url(#clip060)" d="M1552.68 1278.26 Q1549.35 1278.26 1547.43 1280.05 Q1545.53 1281.83 1545.53 1284.95 Q1545.53 1288.08 1547.43 1289.86 Q1549.35 1291.64 1552.68 1291.64 Q1556.01 1291.64 1557.94 1289.86 Q1559.86 1288.05 1559.86 1284.95 Q1559.86 1281.83 1557.94 1280.05 Q1556.04 1278.26 1552.68 1278.26 M1548.01 1276.27 Q1545 1275.53 1543.31 1273.47 Q1541.64 1271.41 1541.64 1268.45 Q1541.64 1264.3 1544.58 1261.9 Q1547.54 1259.49 1552.68 1259.49 Q1557.84 1259.49 1560.78 1261.9 Q1563.72 1264.3 1563.72 1268.45 Q1563.72 1271.41 1562.03 1273.47 Q1560.37 1275.53 1557.38 1276.27 Q1560.76 1277.06 1562.64 1279.35 Q1564.53 1281.64 1564.53 1284.95 Q1564.53 1289.98 1561.45 1292.66 Q1558.4 1295.35 1552.68 1295.35 Q1546.96 1295.35 1543.89 1292.66 Q1540.83 1289.98 1540.83 1284.95 Q1540.83 1281.64 1542.73 1279.35 Q1544.63 1277.06 1548.01 1276.27 M1546.29 1268.89 Q1546.29 1271.57 1547.96 1273.08 Q1549.65 1274.58 1552.68 1274.58 Q1555.69 1274.58 1557.38 1273.08 Q1559.09 1271.57 1559.09 1268.89 Q1559.09 1266.2 1557.38 1264.7 Q1555.69 1263.19 1552.68 1263.19 Q1549.65 1263.19 1547.96 1264.7 Q1546.29 1266.2 1546.29 1268.89 Z" fill="#000000" fill-rule="nonzero" fill-opacity="1" /><path clip-path="url(#clip060)" d="M1573.65 1290.74 L1581.29 1290.74 L1581.29 1264.37 L1572.98 1266.04 L1572.98 1261.78 L1581.25 1260.11 L1585.92 1260.11 L1585.92 1290.74 L1593.56 1290.74 L1593.56 1294.67 L1573.65 1294.67 L1573.65 1290.74 Z" fill="#000000" fill-rule="nonzero" fill-opacity="1" /><path clip-path="url(#clip060)" d="M1600.25 1279.79 L1612.73 1279.79 L1612.73 1283.59 L1600.25 1283.59 L1600.25 1279.79 Z" fill="#000000" fill-rule="nonzero" fill-opacity="1" /><path clip-path="url(#clip060)" d="M1620.92 1290.74 L1628.56 1290.74 L1628.56 1264.37 L1620.25 1266.04 L1620.25 1261.78 L1628.51 1260.11 L1633.19 1260.11 L1633.19 1290.74 L1640.83 1290.74 L1640.83 1294.67 L1620.92 1294.67 L1620.92 1290.74 Z" fill="#000000" fill-rule="nonzero" fill-opacity="1" /><path clip-path="url(#clip060)" d="M1660.27 1263.19 Q1656.66 1263.19 1654.83 1266.76 Q1653.03 1270.3 1653.03 1277.43 Q1653.03 1284.54 1654.83 1288.1 Q1656.66 1291.64 1660.27 1291.64 Q1663.91 1291.64 1665.71 1288.1 Q1667.54 1284.54 1667.54 1277.43 Q1667.54 1270.3 1665.71 1266.76 Q1663.91 1263.19 1660.27 1263.19 M1660.27 1259.49 Q1666.08 1259.49 1669.14 1264.1 Q1672.22 1268.68 1672.22 1277.43 Q1672.22 1286.16 1669.14 1290.76 Q1666.08 1295.35 1660.27 1295.35 Q1654.46 1295.35 1651.38 1290.76 Q1648.33 1286.16 1648.33 1277.43 Q1648.33 1268.68 1651.38 1264.1 Q1654.46 1259.49 1660.27 1259.49 Z" fill="#000000" fill-rule="nonzero" fill-opacity="1" /><path clip-path="url(#clip060)" d="M1677.68 1279.79 L1690.16 1279.79 L1690.16 1283.59 L1677.68 1283.59 L1677.68 1279.79 Z" fill="#000000" fill-rule="nonzero" fill-opacity="1" /><path clip-path="url(#clip060)" d="M1707.54 1263.19 Q1703.93 1263.19 1702.1 1266.76 Q1700.3 1270.3 1700.3 1277.43 Q1700.3 1284.54 1702.1 1288.1 Q1703.93 1291.64 1707.54 1291.64 Q1711.18 1291.64 1712.98 1288.1 Q1714.81 1284.54 1714.81 1277.43 Q1714.81 1270.3 1712.98 1266.76 Q1711.18 1263.19 1707.54 1263.19 M1707.54 1259.49 Q1713.35 1259.49 1716.41 1264.1 Q1719.49 1268.68 1719.49 1277.43 Q1719.49 1286.16 1716.41 1290.76 Q1713.35 1295.35 1707.54 1295.35 Q1701.73 1295.35 1698.65 1290.76 Q1695.6 1286.16 1695.6 1277.43 Q1695.6 1268.68 1698.65 1264.1 Q1701.73 1259.49 1707.54 1259.49 Z" fill="#000000" fill-rule="nonzero" fill-opacity="1" /><path clip-path="url(#clip060)" d="M1728.51 1290.74 L1736.15 1290.74 L1736.15 1264.37 L1727.84 1266.04 L1727.84 1261.78 L1736.11 1260.11 L1740.78 1260.11 L1740.78 1290.74 L1748.42 1290.74 L1748.42 1294.67 L1728.51 1294.67 L1728.51 1290.74 Z" fill="#000000" fill-rule="nonzero" fill-opacity="1" /><path clip-path="url(#clip060)" d="M1888.73 1290.74 L1896.37 1290.74 L1896.37 1264.37 L1888.06 1266.04 L1888.06 1261.78 L1896.33 1260.11 L1901 1260.11 L1901 1290.74 L1908.64 1290.74 L1908.64 1294.67 L1888.73 1294.67 L1888.73 1290.74 Z" fill="#000000" fill-rule="nonzero" fill-opacity="1" /><path clip-path="url(#clip060)" d="M1918.22 1293.96 L1918.22 1289.7 Q1919.98 1290.53 1921.79 1290.97 Q1923.6 1291.41 1925.33 1291.41 Q1929.96 1291.41 1932.39 1288.31 Q1934.85 1285.18 1935.19 1278.84 Q1933.85 1280.83 1931.79 1281.9 Q1929.73 1282.96 1927.23 1282.96 Q1922.04 1282.96 1919.01 1279.84 Q1916 1276.69 1916 1271.25 Q1916 1265.92 1919.15 1262.71 Q1922.3 1259.49 1927.53 1259.49 Q1933.53 1259.49 1936.67 1264.1 Q1939.85 1268.68 1939.85 1277.43 Q1939.85 1285.6 1935.96 1290.48 Q1932.09 1295.35 1925.54 1295.35 Q1923.78 1295.35 1921.97 1295 Q1920.17 1294.65 1918.22 1293.96 M1927.53 1279.3 Q1930.68 1279.3 1932.51 1277.15 Q1934.36 1275 1934.36 1271.25 Q1934.36 1267.52 1932.51 1265.37 Q1930.68 1263.19 1927.53 1263.19 Q1924.38 1263.19 1922.53 1265.37 Q1920.7 1267.52 1920.7 1271.25 Q1920.7 1275 1922.53 1277.15 Q1924.38 1279.3 1927.53 1279.3 Z" fill="#000000" fill-rule="nonzero" fill-opacity="1" /><path clip-path="url(#clip060)" d="M1958.25 1278.26 Q1954.91 1278.26 1952.99 1280.05 Q1951.1 1281.83 1951.1 1284.95 Q1951.1 1288.08 1952.99 1289.86 Q1954.91 1291.64 1958.25 1291.64 Q1961.58 1291.64 1963.5 1289.86 Q1965.42 1288.05 1965.42 1284.95 Q1965.42 1281.83 1963.5 1280.05 Q1961.6 1278.26 1958.25 1278.26 M1953.57 1276.27 Q1950.56 1275.53 1948.87 1273.47 Q1947.21 1271.41 1947.21 1268.45 Q1947.21 1264.3 1950.15 1261.9 Q1953.11 1259.49 1958.25 1259.49 Q1963.41 1259.49 1966.35 1261.9 Q1969.29 1264.3 1969.29 1268.45 Q1969.29 1271.41 1967.6 1273.47 Q1965.93 1275.53 1962.95 1276.27 Q1966.33 1277.06 1968.2 1279.35 Q1970.1 1281.64 1970.1 1284.95 Q1970.1 1289.98 1967.02 1292.66 Q1963.97 1295.35 1958.25 1295.35 Q1952.53 1295.35 1949.45 1292.66 Q1946.4 1289.98 1946.4 1284.95 Q1946.4 1281.64 1948.29 1279.35 Q1950.19 1277.06 1953.57 1276.27 M1951.86 1268.89 Q1951.86 1271.57 1953.53 1273.08 Q1955.22 1274.58 1958.25 1274.58 Q1961.26 1274.58 1962.95 1273.08 Q1964.66 1271.57 1964.66 1268.89 Q1964.66 1266.2 1962.95 1264.7 Q1961.26 1263.19 1958.25 1263.19 Q1955.22 1263.19 1953.53 1264.7 Q1951.86 1266.2 1951.86 1268.89 Z" fill="#000000" fill-rule="nonzero" fill-opacity="1" /><path clip-path="url(#clip060)" d="M1982.44 1290.74 L1998.76 1290.74 L1998.76 1294.67 L1976.81 1294.67 L1976.81 1290.74 Q1979.47 1287.99 1984.06 1283.36 Q1988.66 1278.7 1989.84 1277.36 Q1992.09 1274.84 1992.97 1273.1 Q1993.87 1271.34 1993.87 1269.65 Q1993.87 1266.9 1991.93 1265.16 Q1990.01 1263.42 1986.91 1263.42 Q1984.71 1263.42 1982.25 1264.19 Q1979.82 1264.95 1977.04 1266.5 L1977.04 1261.78 Q1979.87 1260.65 1982.32 1260.07 Q1984.78 1259.49 1986.81 1259.49 Q1992.18 1259.49 1995.38 1262.17 Q1998.57 1264.86 1998.57 1269.35 Q1998.57 1271.48 1997.76 1273.4 Q1996.97 1275.3 1994.87 1277.89 Q1994.29 1278.56 1991.19 1281.78 Q1988.09 1284.98 1982.44 1290.74 Z" fill="#000000" fill-rule="nonzero" fill-opacity="1" /><path clip-path="url(#clip060)" d="M2005.82 1279.79 L2018.29 1279.79 L2018.29 1283.59 L2005.82 1283.59 L2005.82 1279.79 Z" fill="#000000" fill-rule="nonzero" fill-opacity="1" /><path clip-path="url(#clip060)" d="M2035.68 1263.19 Q2032.07 1263.19 2030.24 1266.76 Q2028.43 1270.3 2028.43 1277.43 Q2028.43 1284.54 2030.24 1288.1 Q2032.07 1291.64 2035.68 1291.64 Q2039.31 1291.64 2041.12 1288.1 Q2042.95 1284.54 2042.95 1277.43 Q2042.95 1270.3 2041.12 1266.76 Q2039.31 1263.19 2035.68 1263.19 M2035.68 1259.49 Q2041.49 1259.49 2044.54 1264.1 Q2047.62 1268.68 2047.62 1277.43 Q2047.62 1286.16 2044.54 1290.76 Q2041.49 1295.35 2035.68 1295.35 Q2029.87 1295.35 2026.79 1290.76 Q2023.73 1286.16 2023.73 1277.43 Q2023.73 1268.68 2026.79 1264.1 Q2029.87 1259.49 2035.68 1259.49 Z" fill="#000000" fill-rule="nonzero" fill-opacity="1" /><path clip-path="url(#clip060)" d="M2056.65 1290.74 L2064.29 1290.74 L2064.29 1264.37 L2055.98 1266.04 L2055.98 1261.78 L2064.24 1260.11 L2068.92 1260.11 L2068.92 1290.74 L2076.56 1290.74 L2076.56 1294.67 L2056.65 1294.67 L2056.65 1290.74 Z" fill="#000000" fill-rule="nonzero" fill-opacity="1" /><path clip-path="url(#clip060)" d="M2083.25 1279.79 L2095.72 1279.79 L2095.72 1283.59 L2083.25 1283.59 L2083.25 1279.79 Z" fill="#000000" fill-rule="nonzero" fill-opacity="1" /><path clip-path="url(#clip060)" d="M2113.11 1263.19 Q2109.5 1263.19 2107.67 1266.76 Q2105.86 1270.3 2105.86 1277.43 Q2105.86 1284.54 2107.67 1288.1 Q2109.5 1291.64 2113.11 1291.64 Q2116.74 1291.64 2118.55 1288.1 Q2120.38 1284.54 2120.38 1277.43 Q2120.38 1270.3 2118.55 1266.76 Q2116.74 1263.19 2113.11 1263.19 M2113.11 1259.49 Q2118.92 1259.49 2121.97 1264.1 Q2125.05 1268.68 2125.05 1277.43 Q2125.05 1286.16 2121.97 1290.76 Q2118.92 1295.35 2113.11 1295.35 Q2107.3 1295.35 2104.22 1290.76 Q2101.16 1286.16 2101.16 1277.43 Q2101.16 1268.68 2104.22 1264.1 Q2107.3 1259.49 2113.11 1259.49 Z" fill="#000000" fill-rule="nonzero" fill-opacity="1" /><path clip-path="url(#clip060)" d="M2134.08 1290.74 L2141.72 1290.74 L2141.72 1264.37 L2133.41 1266.04 L2133.41 1261.78 L2141.67 1260.11 L2146.35 1260.11 L2146.35 1290.74 L2153.99 1290.74 L2153.99 1294.67 L2134.08 1294.67 L2134.08 1290.74 Z" fill="#000000" fill-rule="nonzero" fill-opacity="1" /><polyline clip-path="url(#clip060)" style="stroke:#000000; stroke-linecap:round; stroke-linejoin:round; stroke-width:4; stroke-opacity:1; fill:none" points="363.846,1234.58 363.846,47.2441 "/>
<polyline clip-path="url(#clip060)" style="stroke:#000000; stroke-linecap:round; stroke-linejoin:round; stroke-width:4; stroke-opacity:1; fill:none" points="363.846,1200.97 382.744,1200.97 "/>
<polyline clip-path="url(#clip060)" style="stroke:#000000; stroke-linecap:round; stroke-linejoin:round; stroke-width:4; stroke-opacity:1; fill:none" points="363.846,1034.73 382.744,1034.73 "/>
<polyline clip-path="url(#clip060)" style="stroke:#000000; stroke-linecap:round; stroke-linejoin:round; stroke-width:4; stroke-opacity:1; fill:none" points="363.846,868.483 382.744,868.483 "/>
<polyline clip-path="url(#clip060)" style="stroke:#000000; stroke-linecap:round; stroke-linejoin:round; stroke-width:4; stroke-opacity:1; fill:none" points="363.846,702.237 382.744,702.237 "/>
<polyline clip-path="url(#clip060)" style="stroke:#000000; stroke-linecap:round; stroke-linejoin:round; stroke-width:4; stroke-opacity:1; fill:none" points="363.846,535.992 382.744,535.992 "/>
<polyline clip-path="url(#clip060)" style="stroke:#000000; stroke-linecap:round; stroke-linejoin:round; stroke-width:4; stroke-opacity:1; fill:none" points="363.846,369.746 382.744,369.746 "/>
<polyline clip-path="url(#clip060)" style="stroke:#000000; stroke-linecap:round; stroke-linejoin:round; stroke-width:4; stroke-opacity:1; fill:none" points="363.846,203.5 382.744,203.5 "/>
<path clip-path="url(#clip060)" d="M320.222 1186.77 Q316.611 1186.77 314.782 1190.34 Q312.976 1193.88 312.976 1201.01 Q312.976 1208.12 314.782 1211.68 Q316.611 1215.22 320.222 1215.22 Q323.856 1215.22 325.661 1211.68 Q327.49 1208.12 327.49 1201.01 Q327.49 1193.88 325.661 1190.34 Q323.856 1186.77 320.222 1186.77 M320.222 1183.07 Q326.032 1183.07 329.087 1187.68 Q332.166 1192.26 332.166 1201.01 Q332.166 1209.74 329.087 1214.34 Q326.032 1218.93 320.222 1218.93 Q314.411 1218.93 311.333 1214.34 Q308.277 1209.74 308.277 1201.01 Q308.277 1192.26 311.333 1187.68 Q314.411 1183.07 320.222 1183.07 Z" fill="#000000" fill-rule="nonzero" fill-opacity="1" /><path clip-path="url(#clip060)" d="M120.323 1054.52 L136.642 1054.52 L136.642 1058.46 L114.698 1058.46 L114.698 1054.52 Q117.36 1051.77 121.943 1047.14 Q126.549 1042.48 127.73 1041.14 Q129.975 1038.62 130.855 1036.88 Q131.758 1035.12 131.758 1033.43 Q131.758 1030.68 129.813 1028.94 Q127.892 1027.21 124.79 1027.21 Q122.591 1027.21 120.137 1027.97 Q117.707 1028.73 114.929 1030.29 L114.929 1025.56 Q117.753 1024.43 120.207 1023.85 Q122.66 1023.27 124.698 1023.27 Q130.068 1023.27 133.262 1025.96 Q136.457 1028.64 136.457 1033.13 Q136.457 1035.26 135.647 1037.18 Q134.859 1039.08 132.753 1041.67 Q132.174 1042.35 129.072 1045.56 Q125.971 1048.76 120.323 1054.52 Z" fill="#000000" fill-rule="nonzero" fill-opacity="1" /><path clip-path="url(#clip060)" d="M146.457 1052.58 L151.341 1052.58 L151.341 1058.46 L146.457 1058.46 L146.457 1052.58 Z" fill="#000000" fill-rule="nonzero" fill-opacity="1" /><path clip-path="url(#clip060)" d="M171.526 1026.98 Q167.915 1026.98 166.086 1030.54 Q164.281 1034.08 164.281 1041.21 Q164.281 1048.32 166.086 1051.88 Q167.915 1055.42 171.526 1055.42 Q175.16 1055.42 176.966 1051.88 Q178.794 1048.32 178.794 1041.21 Q178.794 1034.08 176.966 1030.54 Q175.16 1026.98 171.526 1026.98 M171.526 1023.27 Q177.336 1023.27 180.392 1027.88 Q183.47 1032.46 183.47 1041.21 Q183.47 1049.94 180.392 1054.54 Q177.336 1059.13 171.526 1059.13 Q165.716 1059.13 162.637 1054.54 Q159.582 1049.94 159.582 1041.21 Q159.582 1032.46 162.637 1027.88 Q165.716 1023.27 171.526 1023.27 Z" fill="#000000" fill-rule="nonzero" fill-opacity="1" /><path clip-path="url(#clip060)" d="M201.688 1026.98 Q198.077 1026.98 196.248 1030.54 Q194.443 1034.08 194.443 1041.21 Q194.443 1048.32 196.248 1051.88 Q198.077 1055.42 201.688 1055.42 Q205.322 1055.42 207.128 1051.88 Q208.956 1048.32 208.956 1041.21 Q208.956 1034.08 207.128 1030.54 Q205.322 1026.98 201.688 1026.98 M201.688 1023.27 Q207.498 1023.27 210.554 1027.88 Q213.632 1032.46 213.632 1041.21 Q213.632 1049.94 210.554 1054.54 Q207.498 1059.13 201.688 1059.13 Q195.878 1059.13 192.799 1054.54 Q189.743 1049.94 189.743 1041.21 Q189.743 1032.46 192.799 1027.88 Q195.878 1023.27 201.688 1023.27 Z" fill="#000000" fill-rule="nonzero" fill-opacity="1" /><path clip-path="url(#clip060)" d="M250.021 1032.99 L239.442 1043.62 L250.021 1054.2 L247.266 1057 L236.641 1046.37 L226.016 1057 L223.285 1054.2 L233.84 1043.62 L223.285 1032.99 L226.016 1030.19 L236.641 1040.82 L247.266 1030.19 L250.021 1032.99 Z" fill="#000000" fill-rule="nonzero" fill-opacity="1" /><path clip-path="url(#clip060)" d="M262.382 1054.52 L270.021 1054.52 L270.021 1028.16 L261.711 1029.82 L261.711 1025.56 L269.975 1023.9 L274.65 1023.9 L274.65 1054.52 L282.289 1054.52 L282.289 1058.46 L262.382 1058.46 L262.382 1054.52 Z" fill="#000000" fill-rule="nonzero" fill-opacity="1" /><path clip-path="url(#clip060)" d="M301.734 1026.98 Q298.123 1026.98 296.294 1030.54 Q294.488 1034.08 294.488 1041.21 Q294.488 1048.32 296.294 1051.88 Q298.123 1055.42 301.734 1055.42 Q305.368 1055.42 307.173 1051.88 Q309.002 1048.32 309.002 1041.21 Q309.002 1034.08 307.173 1030.54 Q305.368 1026.98 301.734 1026.98 M301.734 1023.27 Q307.544 1023.27 310.599 1027.88 Q313.678 1032.46 313.678 1041.21 Q313.678 1049.94 310.599 1054.54 Q307.544 1059.13 301.734 1059.13 Q295.923 1059.13 292.845 1054.54 Q289.789 1049.94 289.789 1041.21 Q289.789 1032.46 292.845 1027.88 Q295.923 1023.27 301.734 1023.27 Z" fill="#000000" fill-rule="nonzero" fill-opacity="1" /><path clip-path="url(#clip060)" d="M326.373 1015.91 Q329.1 1016.49 330.624 1018.33 Q332.166 1020.18 332.166 1022.88 Q332.166 1027.04 329.307 1029.32 Q326.448 1031.59 321.182 1031.59 Q319.414 1031.59 317.534 1031.23 Q315.672 1030.9 313.678 1030.2 L313.678 1026.53 Q315.258 1027.45 317.139 1027.92 Q319.019 1028.39 321.069 1028.39 Q324.643 1028.39 326.505 1026.98 Q328.386 1025.57 328.386 1022.88 Q328.386 1020.4 326.637 1019.01 Q324.906 1017.6 321.803 1017.6 L318.53 1017.6 L318.53 1014.48 L321.953 1014.48 Q324.756 1014.48 326.242 1013.37 Q327.727 1012.24 327.727 1010.13 Q327.727 1007.97 326.185 1006.82 Q324.662 1005.66 321.803 1005.66 Q320.242 1005.66 318.455 1005.99 Q316.668 1006.33 314.524 1007.05 L314.524 1003.66 Q316.687 1003.06 318.568 1002.76 Q320.468 1002.46 322.141 1002.46 Q326.467 1002.46 328.987 1004.43 Q331.508 1006.39 331.508 1009.74 Q331.508 1012.07 330.172 1013.69 Q328.837 1015.29 326.373 1015.91 Z" fill="#000000" fill-rule="nonzero" fill-opacity="1" /><path clip-path="url(#clip060)" d="M129.142 861.725 L117.336 880.174 L129.142 880.174 L129.142 861.725 M127.915 857.651 L133.795 857.651 L133.795 880.174 L138.725 880.174 L138.725 884.063 L133.795 884.063 L133.795 892.211 L129.142 892.211 L129.142 884.063 L113.54 884.063 L113.54 879.549 L127.915 857.651 Z" fill="#000000" fill-rule="nonzero" fill-opacity="1" /><path clip-path="url(#clip060)" d="M146.457 886.331 L151.341 886.331 L151.341 892.211 L146.457 892.211 L146.457 886.331 Z" fill="#000000" fill-rule="nonzero" fill-opacity="1" /><path clip-path="url(#clip060)" d="M171.526 860.73 Q167.915 860.73 166.086 864.294 Q164.281 867.836 164.281 874.966 Q164.281 882.072 166.086 885.637 Q167.915 889.178 171.526 889.178 Q175.16 889.178 176.966 885.637 Q178.794 882.072 178.794 874.966 Q178.794 867.836 176.966 864.294 Q175.16 860.73 171.526 860.73 M171.526 857.026 Q177.336 857.026 180.392 861.632 Q183.47 866.216 183.47 874.966 Q183.47 883.692 180.392 888.299 Q177.336 892.882 171.526 892.882 Q165.716 892.882 162.637 888.299 Q159.582 883.692 159.582 874.966 Q159.582 866.216 162.637 861.632 Q165.716 857.026 171.526 857.026 Z" fill="#000000" fill-rule="nonzero" fill-opacity="1" /><path clip-path="url(#clip060)" d="M201.688 860.73 Q198.077 860.73 196.248 864.294 Q194.443 867.836 194.443 874.966 Q194.443 882.072 196.248 885.637 Q198.077 889.178 201.688 889.178 Q205.322 889.178 207.128 885.637 Q208.956 882.072 208.956 874.966 Q208.956 867.836 207.128 864.294 Q205.322 860.73 201.688 860.73 M201.688 857.026 Q207.498 857.026 210.554 861.632 Q213.632 866.216 213.632 874.966 Q213.632 883.692 210.554 888.299 Q207.498 892.882 201.688 892.882 Q195.878 892.882 192.799 888.299 Q189.743 883.692 189.743 874.966 Q189.743 866.216 192.799 861.632 Q195.878 857.026 201.688 857.026 Z" fill="#000000" fill-rule="nonzero" fill-opacity="1" /><path clip-path="url(#clip060)" d="M250.021 866.748 L239.442 877.373 L250.021 887.952 L247.266 890.753 L236.641 880.128 L226.016 890.753 L223.285 887.952 L233.84 877.373 L223.285 866.748 L226.016 863.947 L236.641 874.572 L247.266 863.947 L250.021 866.748 Z" fill="#000000" fill-rule="nonzero" fill-opacity="1" /><path clip-path="url(#clip060)" d="M262.382 888.276 L270.021 888.276 L270.021 861.91 L261.711 863.577 L261.711 859.318 L269.975 857.651 L274.65 857.651 L274.65 888.276 L282.289 888.276 L282.289 892.211 L262.382 892.211 L262.382 888.276 Z" fill="#000000" fill-rule="nonzero" fill-opacity="1" /><path clip-path="url(#clip060)" d="M301.734 860.73 Q298.123 860.73 296.294 864.294 Q294.488 867.836 294.488 874.966 Q294.488 882.072 296.294 885.637 Q298.123 889.178 301.734 889.178 Q305.368 889.178 307.173 885.637 Q309.002 882.072 309.002 874.966 Q309.002 867.836 307.173 864.294 Q305.368 860.73 301.734 860.73 M301.734 857.026 Q307.544 857.026 310.599 861.632 Q313.678 866.216 313.678 874.966 Q313.678 883.692 310.599 888.299 Q307.544 892.882 301.734 892.882 Q295.923 892.882 292.845 888.299 Q289.789 883.692 289.789 874.966 Q289.789 866.216 292.845 861.632 Q295.923 857.026 301.734 857.026 Z" fill="#000000" fill-rule="nonzero" fill-opacity="1" /><path clip-path="url(#clip060)" d="M326.373 849.66 Q329.1 850.243 330.624 852.086 Q332.166 853.93 332.166 856.638 Q332.166 860.794 329.307 863.07 Q326.448 865.346 321.182 865.346 Q319.414 865.346 317.534 864.989 Q315.672 864.65 313.678 863.954 L313.678 860.287 Q315.258 861.208 317.139 861.678 Q319.019 862.149 321.069 862.149 Q324.643 862.149 326.505 860.738 Q328.386 859.327 328.386 856.638 Q328.386 854.155 326.637 852.764 Q324.906 851.353 321.803 851.353 L318.53 851.353 L318.53 848.231 L321.953 848.231 Q324.756 848.231 326.242 847.121 Q327.727 845.993 327.727 843.886 Q327.727 841.723 326.185 840.576 Q324.662 839.41 321.803 839.41 Q320.242 839.41 318.455 839.749 Q316.668 840.087 314.524 840.802 L314.524 837.416 Q316.687 836.815 318.568 836.514 Q320.468 836.213 322.141 836.213 Q326.467 836.213 328.987 838.187 Q331.508 840.144 331.508 843.491 Q331.508 845.823 330.172 847.441 Q328.837 849.04 326.373 849.66 Z" fill="#000000" fill-rule="nonzero" fill-opacity="1" /><path clip-path="url(#clip060)" d="M126.873 706.822 Q123.725 706.822 121.873 708.974 Q120.045 711.127 120.045 714.877 Q120.045 718.604 121.873 720.78 Q123.725 722.933 126.873 722.933 Q130.022 722.933 131.85 720.78 Q133.702 718.604 133.702 714.877 Q133.702 711.127 131.85 708.974 Q130.022 706.822 126.873 706.822 M136.156 692.169 L136.156 696.428 Q134.397 695.595 132.591 695.155 Q130.809 694.715 129.049 694.715 Q124.42 694.715 121.966 697.84 Q119.535 700.965 119.188 707.285 Q120.554 705.271 122.614 704.206 Q124.674 703.118 127.151 703.118 Q132.36 703.118 135.369 706.289 Q138.401 709.437 138.401 714.877 Q138.401 720.201 135.253 723.419 Q132.105 726.636 126.873 726.636 Q120.878 726.636 117.707 722.053 Q114.536 717.447 114.536 708.72 Q114.536 700.525 118.424 695.664 Q122.313 690.78 128.864 690.78 Q130.623 690.78 132.406 691.127 Q134.211 691.474 136.156 692.169 Z" fill="#000000" fill-rule="nonzero" fill-opacity="1" /><path clip-path="url(#clip060)" d="M146.457 720.085 L151.341 720.085 L151.341 725.965 L146.457 725.965 L146.457 720.085 Z" fill="#000000" fill-rule="nonzero" fill-opacity="1" /><path clip-path="url(#clip060)" d="M171.526 694.484 Q167.915 694.484 166.086 698.049 Q164.281 701.59 164.281 708.72 Q164.281 715.826 166.086 719.391 Q167.915 722.933 171.526 722.933 Q175.16 722.933 176.966 719.391 Q178.794 715.826 178.794 708.72 Q178.794 701.59 176.966 698.049 Q175.16 694.484 171.526 694.484 M171.526 690.78 Q177.336 690.78 180.392 695.387 Q183.47 699.97 183.47 708.72 Q183.47 717.447 180.392 722.053 Q177.336 726.636 171.526 726.636 Q165.716 726.636 162.637 722.053 Q159.582 717.447 159.582 708.72 Q159.582 699.97 162.637 695.387 Q165.716 690.78 171.526 690.78 Z" fill="#000000" fill-rule="nonzero" fill-opacity="1" /><path clip-path="url(#clip060)" d="M201.688 694.484 Q198.077 694.484 196.248 698.049 Q194.443 701.59 194.443 708.72 Q194.443 715.826 196.248 719.391 Q198.077 722.933 201.688 722.933 Q205.322 722.933 207.128 719.391 Q208.956 715.826 208.956 708.72 Q208.956 701.59 207.128 698.049 Q205.322 694.484 201.688 694.484 M201.688 690.78 Q207.498 690.78 210.554 695.387 Q213.632 699.97 213.632 708.72 Q213.632 717.447 210.554 722.053 Q207.498 726.636 201.688 726.636 Q195.878 726.636 192.799 722.053 Q189.743 717.447 189.743 708.72 Q189.743 699.97 192.799 695.387 Q195.878 690.78 201.688 690.78 Z" fill="#000000" fill-rule="nonzero" fill-opacity="1" /><path clip-path="url(#clip060)" d="M250.021 700.502 L239.442 711.127 L250.021 721.706 L247.266 724.507 L236.641 713.882 L226.016 724.507 L223.285 721.706 L233.84 711.127 L223.285 700.502 L226.016 697.701 L236.641 708.326 L247.266 697.701 L250.021 700.502 Z" fill="#000000" fill-rule="nonzero" fill-opacity="1" /><path clip-path="url(#clip060)" d="M262.382 722.03 L270.021 722.03 L270.021 695.664 L261.711 697.331 L261.711 693.072 L269.975 691.405 L274.65 691.405 L274.65 722.03 L282.289 722.03 L282.289 725.965 L262.382 725.965 L262.382 722.03 Z" fill="#000000" fill-rule="nonzero" fill-opacity="1" /><path clip-path="url(#clip060)" d="M301.734 694.484 Q298.123 694.484 296.294 698.049 Q294.488 701.59 294.488 708.72 Q294.488 715.826 296.294 719.391 Q298.123 722.933 301.734 722.933 Q305.368 722.933 307.173 719.391 Q309.002 715.826 309.002 708.72 Q309.002 701.59 307.173 698.049 Q305.368 694.484 301.734 694.484 M301.734 690.78 Q307.544 690.78 310.599 695.387 Q313.678 699.97 313.678 708.72 Q313.678 717.447 310.599 722.053 Q307.544 726.636 301.734 726.636 Q295.923 726.636 292.845 722.053 Q289.789 717.447 289.789 708.72 Q289.789 699.97 292.845 695.387 Q295.923 690.78 301.734 690.78 Z" fill="#000000" fill-rule="nonzero" fill-opacity="1" /><path clip-path="url(#clip060)" d="M326.373 683.414 Q329.1 683.997 330.624 685.841 Q332.166 687.684 332.166 690.392 Q332.166 694.549 329.307 696.824 Q326.448 699.1 321.182 699.1 Q319.414 699.1 317.534 698.743 Q315.672 698.404 313.678 697.708 L313.678 694.041 Q315.258 694.962 317.139 695.433 Q319.019 695.903 321.069 695.903 Q324.643 695.903 326.505 694.492 Q328.386 693.082 328.386 690.392 Q328.386 687.909 326.637 686.518 Q324.906 685.107 321.803 685.107 L318.53 685.107 L318.53 681.985 L321.953 681.985 Q324.756 681.985 326.242 680.875 Q327.727 679.747 327.727 677.64 Q327.727 675.478 326.185 674.33 Q324.662 673.164 321.803 673.164 Q320.242 673.164 318.455 673.503 Q316.668 673.841 314.524 674.556 L314.524 671.171 Q316.687 670.569 318.568 670.268 Q320.468 669.967 322.141 669.967 Q326.467 669.967 328.987 671.942 Q331.508 673.898 331.508 677.245 Q331.508 679.578 330.172 681.195 Q328.837 682.794 326.373 683.414 Z" fill="#000000" fill-rule="nonzero" fill-opacity="1" /><path clip-path="url(#clip060)" d="M126.295 543.307 Q122.961 543.307 121.04 545.09 Q119.142 546.872 119.142 549.997 Q119.142 553.122 121.04 554.904 Q122.961 556.687 126.295 556.687 Q129.628 556.687 131.549 554.904 Q133.471 553.099 133.471 549.997 Q133.471 546.872 131.549 545.09 Q129.651 543.307 126.295 543.307 M121.619 541.317 Q118.61 540.576 116.92 538.516 Q115.253 536.455 115.253 533.492 Q115.253 529.349 118.193 526.942 Q121.156 524.534 126.295 524.534 Q131.457 524.534 134.397 526.942 Q137.336 529.349 137.336 533.492 Q137.336 536.455 135.647 538.516 Q133.98 540.576 130.994 541.317 Q134.373 542.104 136.248 544.395 Q138.147 546.687 138.147 549.997 Q138.147 555.02 135.068 557.705 Q132.012 560.391 126.295 560.391 Q120.577 560.391 117.498 557.705 Q114.443 555.02 114.443 549.997 Q114.443 546.687 116.341 544.395 Q118.239 542.104 121.619 541.317 M119.906 533.932 Q119.906 536.617 121.573 538.122 Q123.262 539.627 126.295 539.627 Q129.304 539.627 130.994 538.122 Q132.707 536.617 132.707 533.932 Q132.707 531.247 130.994 529.743 Q129.304 528.238 126.295 528.238 Q123.262 528.238 121.573 529.743 Q119.906 531.247 119.906 533.932 Z" fill="#000000" fill-rule="nonzero" fill-opacity="1" /><path clip-path="url(#clip060)" d="M146.457 553.84 L151.341 553.84 L151.341 559.719 L146.457 559.719 L146.457 553.84 Z" fill="#000000" fill-rule="nonzero" fill-opacity="1" /><path clip-path="url(#clip060)" d="M171.526 528.238 Q167.915 528.238 166.086 531.803 Q164.281 535.344 164.281 542.474 Q164.281 549.58 166.086 553.145 Q167.915 556.687 171.526 556.687 Q175.16 556.687 176.966 553.145 Q178.794 549.58 178.794 542.474 Q178.794 535.344 176.966 531.803 Q175.16 528.238 171.526 528.238 M171.526 524.534 Q177.336 524.534 180.392 529.141 Q183.47 533.724 183.47 542.474 Q183.47 551.201 180.392 555.807 Q177.336 560.391 171.526 560.391 Q165.716 560.391 162.637 555.807 Q159.582 551.201 159.582 542.474 Q159.582 533.724 162.637 529.141 Q165.716 524.534 171.526 524.534 Z" fill="#000000" fill-rule="nonzero" fill-opacity="1" /><path clip-path="url(#clip060)" d="M201.688 528.238 Q198.077 528.238 196.248 531.803 Q194.443 535.344 194.443 542.474 Q194.443 549.58 196.248 553.145 Q198.077 556.687 201.688 556.687 Q205.322 556.687 207.128 553.145 Q208.956 549.58 208.956 542.474 Q208.956 535.344 207.128 531.803 Q205.322 528.238 201.688 528.238 M201.688 524.534 Q207.498 524.534 210.554 529.141 Q213.632 533.724 213.632 542.474 Q213.632 551.201 210.554 555.807 Q207.498 560.391 201.688 560.391 Q195.878 560.391 192.799 555.807 Q189.743 551.201 189.743 542.474 Q189.743 533.724 192.799 529.141 Q195.878 524.534 201.688 524.534 Z" fill="#000000" fill-rule="nonzero" fill-opacity="1" /><path clip-path="url(#clip060)" d="M250.021 534.256 L239.442 544.881 L250.021 555.46 L247.266 558.261 L236.641 547.636 L226.016 558.261 L223.285 555.46 L233.84 544.881 L223.285 534.256 L226.016 531.455 L236.641 542.08 L247.266 531.455 L250.021 534.256 Z" fill="#000000" fill-rule="nonzero" fill-opacity="1" /><path clip-path="url(#clip060)" d="M262.382 555.784 L270.021 555.784 L270.021 529.418 L261.711 531.085 L261.711 526.826 L269.975 525.159 L274.65 525.159 L274.65 555.784 L282.289 555.784 L282.289 559.719 L262.382 559.719 L262.382 555.784 Z" fill="#000000" fill-rule="nonzero" fill-opacity="1" /><path clip-path="url(#clip060)" d="M301.734 528.238 Q298.123 528.238 296.294 531.803 Q294.488 535.344 294.488 542.474 Q294.488 549.58 296.294 553.145 Q298.123 556.687 301.734 556.687 Q305.368 556.687 307.173 553.145 Q309.002 549.58 309.002 542.474 Q309.002 535.344 307.173 531.803 Q305.368 528.238 301.734 528.238 M301.734 524.534 Q307.544 524.534 310.599 529.141 Q313.678 533.724 313.678 542.474 Q313.678 551.201 310.599 555.807 Q307.544 560.391 301.734 560.391 Q295.923 560.391 292.845 555.807 Q289.789 551.201 289.789 542.474 Q289.789 533.724 292.845 529.141 Q295.923 524.534 301.734 524.534 Z" fill="#000000" fill-rule="nonzero" fill-opacity="1" /><path clip-path="url(#clip060)" d="M326.373 517.169 Q329.1 517.752 330.624 519.595 Q332.166 521.438 332.166 524.146 Q332.166 528.303 329.307 530.578 Q326.448 532.854 321.182 532.854 Q319.414 532.854 317.534 532.497 Q315.672 532.158 313.678 531.462 L313.678 527.795 Q315.258 528.717 317.139 529.187 Q319.019 529.657 321.069 529.657 Q324.643 529.657 326.505 528.246 Q328.386 526.836 328.386 524.146 Q328.386 521.664 326.637 520.272 Q324.906 518.861 321.803 518.861 L318.53 518.861 L318.53 515.739 L321.953 515.739 Q324.756 515.739 326.242 514.63 Q327.727 513.501 327.727 511.395 Q327.727 509.232 326.185 508.084 Q324.662 506.918 321.803 506.918 Q320.242 506.918 318.455 507.257 Q316.668 507.595 314.524 508.31 L314.524 504.925 Q316.687 504.323 318.568 504.022 Q320.468 503.721 322.141 503.721 Q326.467 503.721 328.987 505.696 Q331.508 507.652 331.508 511 Q331.508 513.332 330.172 514.949 Q328.837 516.548 326.373 517.169 Z" fill="#000000" fill-rule="nonzero" fill-opacity="1" /><path clip-path="url(#clip060)" d="M115.13 389.538 L122.769 389.538 L122.769 363.173 L114.459 364.839 L114.459 360.58 L122.723 358.913 L127.399 358.913 L127.399 389.538 L135.037 389.538 L135.037 393.473 L115.13 393.473 L115.13 389.538 Z" fill="#000000" fill-rule="nonzero" fill-opacity="1" /><path clip-path="url(#clip060)" d="M144.482 387.594 L149.366 387.594 L149.366 393.473 L144.482 393.473 L144.482 387.594 Z" fill="#000000" fill-rule="nonzero" fill-opacity="1" /><path clip-path="url(#clip060)" d="M169.551 361.992 Q165.94 361.992 164.111 365.557 Q162.306 369.099 162.306 376.228 Q162.306 383.335 164.111 386.899 Q165.94 390.441 169.551 390.441 Q173.185 390.441 174.991 386.899 Q176.82 383.335 176.82 376.228 Q176.82 369.099 174.991 365.557 Q173.185 361.992 169.551 361.992 M169.551 358.288 Q175.361 358.288 178.417 362.895 Q181.496 367.478 181.496 376.228 Q181.496 384.955 178.417 389.561 Q175.361 394.145 169.551 394.145 Q163.741 394.145 160.662 389.561 Q157.607 384.955 157.607 376.228 Q157.607 367.478 160.662 362.895 Q163.741 358.288 169.551 358.288 Z" fill="#000000" fill-rule="nonzero" fill-opacity="1" /><path clip-path="url(#clip060)" d="M199.713 361.992 Q196.102 361.992 194.273 365.557 Q192.468 369.099 192.468 376.228 Q192.468 383.335 194.273 386.899 Q196.102 390.441 199.713 390.441 Q203.347 390.441 205.153 386.899 Q206.981 383.335 206.981 376.228 Q206.981 369.099 205.153 365.557 Q203.347 361.992 199.713 361.992 M199.713 358.288 Q205.523 358.288 208.579 362.895 Q211.657 367.478 211.657 376.228 Q211.657 384.955 208.579 389.561 Q205.523 394.145 199.713 394.145 Q193.903 394.145 190.824 389.561 Q187.769 384.955 187.769 376.228 Q187.769 367.478 190.824 362.895 Q193.903 358.288 199.713 358.288 Z" fill="#000000" fill-rule="nonzero" fill-opacity="1" /><path clip-path="url(#clip060)" d="M248.046 368.011 L237.467 378.635 L248.046 389.214 L245.291 392.015 L234.667 381.39 L224.042 392.015 L221.31 389.214 L231.866 378.635 L221.31 368.011 L224.042 365.21 L234.667 375.835 L245.291 365.21 L248.046 368.011 Z" fill="#000000" fill-rule="nonzero" fill-opacity="1" /><path clip-path="url(#clip060)" d="M260.407 389.538 L268.046 389.538 L268.046 363.173 L259.736 364.839 L259.736 360.58 L268 358.913 L272.676 358.913 L272.676 389.538 L280.314 389.538 L280.314 393.473 L260.407 393.473 L260.407 389.538 Z" fill="#000000" fill-rule="nonzero" fill-opacity="1" /><path clip-path="url(#clip060)" d="M299.759 361.992 Q296.148 361.992 294.319 365.557 Q292.513 369.099 292.513 376.228 Q292.513 383.335 294.319 386.899 Q296.148 390.441 299.759 390.441 Q303.393 390.441 305.199 386.899 Q307.027 383.335 307.027 376.228 Q307.027 369.099 305.199 365.557 Q303.393 361.992 299.759 361.992 M299.759 358.288 Q305.569 358.288 308.624 362.895 Q311.703 367.478 311.703 376.228 Q311.703 384.955 308.624 389.561 Q305.569 394.145 299.759 394.145 Q293.949 394.145 290.87 389.561 Q287.814 384.955 287.814 376.228 Q287.814 367.478 290.87 362.895 Q293.949 358.288 299.759 358.288 Z" fill="#000000" fill-rule="nonzero" fill-opacity="1" /><path clip-path="url(#clip060)" d="M324.38 341.293 L314.788 356.283 L324.38 356.283 L324.38 341.293 M323.383 337.983 L328.16 337.983 L328.16 356.283 L332.166 356.283 L332.166 359.443 L328.16 359.443 L328.16 366.063 L324.38 366.063 L324.38 359.443 L311.703 359.443 L311.703 355.775 L323.383 337.983 Z" fill="#000000" fill-rule="nonzero" fill-opacity="1" /><path clip-path="url(#clip060)" d="M115.13 223.292 L122.769 223.292 L122.769 196.927 L114.459 198.593 L114.459 194.334 L122.723 192.668 L127.399 192.668 L127.399 223.292 L135.037 223.292 L135.037 227.228 L115.13 227.228 L115.13 223.292 Z" fill="#000000" fill-rule="nonzero" fill-opacity="1" /><path clip-path="url(#clip060)" d="M144.482 221.348 L149.366 221.348 L149.366 227.228 L144.482 227.228 L144.482 221.348 Z" fill="#000000" fill-rule="nonzero" fill-opacity="1" /><path clip-path="url(#clip060)" d="M163.579 223.292 L179.898 223.292 L179.898 227.228 L157.954 227.228 L157.954 223.292 Q160.616 220.538 165.199 215.908 Q169.806 211.255 170.986 209.913 Q173.232 207.39 174.111 205.654 Q175.014 203.894 175.014 202.205 Q175.014 199.45 173.07 197.714 Q171.148 195.978 168.047 195.978 Q165.847 195.978 163.394 196.742 Q160.963 197.505 158.185 199.056 L158.185 194.334 Q161.01 193.2 163.463 192.621 Q165.917 192.043 167.954 192.043 Q173.324 192.043 176.519 194.728 Q179.713 197.413 179.713 201.904 Q179.713 204.033 178.903 205.954 Q178.116 207.853 176.009 210.445 Q175.431 211.117 172.329 214.334 Q169.227 217.529 163.579 223.292 Z" fill="#000000" fill-rule="nonzero" fill-opacity="1" /><path clip-path="url(#clip060)" d="M199.713 195.746 Q196.102 195.746 194.273 199.311 Q192.468 202.853 192.468 209.982 Q192.468 217.089 194.273 220.653 Q196.102 224.195 199.713 224.195 Q203.347 224.195 205.153 220.653 Q206.981 217.089 206.981 209.982 Q206.981 202.853 205.153 199.311 Q203.347 195.746 199.713 195.746 M199.713 192.043 Q205.523 192.043 208.579 196.649 Q211.657 201.232 211.657 209.982 Q211.657 218.709 208.579 223.316 Q205.523 227.899 199.713 227.899 Q193.903 227.899 190.824 223.316 Q187.769 218.709 187.769 209.982 Q187.769 201.232 190.824 196.649 Q193.903 192.043 199.713 192.043 Z" fill="#000000" fill-rule="nonzero" fill-opacity="1" /><path clip-path="url(#clip060)" d="M248.046 201.765 L237.467 212.39 L248.046 222.968 L245.291 225.769 L234.667 215.144 L224.042 225.769 L221.31 222.968 L231.866 212.39 L221.31 201.765 L224.042 198.964 L234.667 209.589 L245.291 198.964 L248.046 201.765 Z" fill="#000000" fill-rule="nonzero" fill-opacity="1" /><path clip-path="url(#clip060)" d="M260.407 223.292 L268.046 223.292 L268.046 196.927 L259.736 198.593 L259.736 194.334 L268 192.668 L272.676 192.668 L272.676 223.292 L280.314 223.292 L280.314 227.228 L260.407 227.228 L260.407 223.292 Z" fill="#000000" fill-rule="nonzero" fill-opacity="1" /><path clip-path="url(#clip060)" d="M299.759 195.746 Q296.148 195.746 294.319 199.311 Q292.513 202.853 292.513 209.982 Q292.513 217.089 294.319 220.653 Q296.148 224.195 299.759 224.195 Q303.393 224.195 305.199 220.653 Q307.027 217.089 307.027 209.982 Q307.027 202.853 305.199 199.311 Q303.393 195.746 299.759 195.746 M299.759 192.043 Q305.569 192.043 308.624 196.649 Q311.703 201.232 311.703 209.982 Q311.703 218.709 308.624 223.316 Q305.569 227.899 299.759 227.899 Q293.949 227.899 290.87 223.316 Q287.814 218.709 287.814 209.982 Q287.814 201.232 290.87 196.649 Q293.949 192.043 299.759 192.043 Z" fill="#000000" fill-rule="nonzero" fill-opacity="1" /><path clip-path="url(#clip060)" d="M324.38 175.047 L314.788 190.037 L324.38 190.037 L324.38 175.047 M323.383 171.737 L328.16 171.737 L328.16 190.037 L332.166 190.037 L332.166 193.197 L328.16 193.197 L328.16 199.817 L324.38 199.817 L324.38 193.197 L311.703 193.197 L311.703 189.529 L323.383 171.737 Z" fill="#000000" fill-rule="nonzero" fill-opacity="1" /><path clip-path="url(#clip060)" d="M20.0842 897.752 L20.0842 857.552 L25.495 857.552 L25.495 874.421 L67.6042 874.421 L67.6042 880.883 L25.495 880.883 L25.495 897.752 L20.0842 897.752 Z" fill="#000000" fill-rule="nonzero" fill-opacity="1" /><path clip-path="url(#clip060)" d="M49.6847 846.19 Q49.6847 853.287 51.3079 856.025 Q52.9312 858.762 56.8461 858.762 Q59.9653 858.762 61.8114 856.725 Q63.6256 854.656 63.6256 851.123 Q63.6256 846.253 60.1881 843.325 Q56.7188 840.365 50.9897 840.365 L49.6847 840.365 L49.6847 846.19 M47.2657 834.508 L67.6042 834.508 L67.6042 840.365 L62.1933 840.365 Q65.4398 842.37 66.9994 845.362 Q68.5272 848.354 68.5272 852.683 Q68.5272 858.157 65.4716 861.404 Q62.3843 864.618 57.2281 864.618 Q51.2125 864.618 48.1569 860.608 Q45.1014 856.566 45.1014 848.577 L45.1014 840.365 L44.5285 840.365 Q40.4862 840.365 38.2901 843.039 Q36.0621 845.68 36.0621 850.486 Q36.0621 853.542 36.7941 856.438 Q37.5262 859.335 38.9903 862.008 L33.5795 862.008 Q32.3381 858.794 31.7334 855.77 Q31.0968 852.746 31.0968 849.882 Q31.0968 842.147 35.1072 838.328 Q39.1176 834.508 47.2657 834.508 Z" fill="#000000" fill-rule="nonzero" fill-opacity="1" /><path clip-path="url(#clip060)" d="M46.0881 792.813 L67.6042 792.813 L67.6042 798.67 L46.279 798.67 Q41.2183 798.67 38.7038 800.643 Q36.1894 802.616 36.1894 806.563 Q36.1894 811.305 39.2131 814.043 Q42.2368 816.78 47.4567 816.78 L67.6042 816.78 L67.6042 822.668 L31.9562 822.668 L31.9562 816.78 L37.4944 816.78 Q34.2797 814.679 32.6883 811.847 Q31.0968 808.982 31.0968 805.258 Q31.0968 799.115 34.9163 795.964 Q38.7038 792.813 46.0881 792.813 Z" fill="#000000" fill-rule="nonzero" fill-opacity="1" /><path clip-path="url(#clip060)" d="M18.079 781.355 L18.079 775.467 L47.3294 775.467 L31.9562 757.993 L31.9562 750.513 L48.6344 769.419 L67.6042 749.717 L67.6042 757.356 L50.1939 775.467 L67.6042 775.467 L67.6042 781.355 L18.079 781.355 Z" fill="#000000" fill-rule="nonzero" fill-opacity="1" /><path clip-path="url(#clip060)" d="M67.6042 710.154 L20.0842 728.297 L20.0842 721.581 L60.0926 706.526 L20.0842 691.439 L20.0842 684.755 L67.6042 702.866 L67.6042 710.154 Z" fill="#000000" fill-rule="nonzero" fill-opacity="1" /><path clip-path="url(#clip060)" d="M36.0621 669.318 Q36.0621 674.029 39.7542 676.766 Q43.4145 679.504 49.812 679.504 Q56.2095 679.504 59.9017 676.798 Q63.5619 674.061 63.5619 669.318 Q63.5619 664.64 59.8698 661.902 Q56.1777 659.165 49.812 659.165 Q43.4781 659.165 39.786 661.902 Q36.0621 664.64 36.0621 669.318 M31.0968 669.318 Q31.0968 661.68 36.0621 657.319 Q41.0273 652.959 49.812 652.959 Q58.5649 652.959 63.5619 657.319 Q68.5272 661.68 68.5272 669.318 Q68.5272 676.989 63.5619 681.35 Q58.5649 685.678 49.812 685.678 Q41.0273 685.678 36.0621 681.35 Q31.0968 676.989 31.0968 669.318 Z" fill="#000000" fill-rule="nonzero" fill-opacity="1" /><path clip-path="url(#clip060)" d="M18.079 643.251 L18.079 637.394 L67.6042 637.394 L67.6042 643.251 L18.079 643.251 Z" fill="#000000" fill-rule="nonzero" fill-opacity="1" /><path clip-path="url(#clip060)" d="M53.5359 625.745 L31.9562 625.745 L31.9562 619.889 L53.3131 619.889 Q58.3739 619.889 60.9202 617.915 Q63.4346 615.942 63.4346 611.995 Q63.4346 607.253 60.4109 604.516 Q57.3872 601.746 52.1673 601.746 L31.9562 601.746 L31.9562 595.89 L67.6042 595.89 L67.6042 601.746 L62.1296 601.746 Q65.3762 603.879 66.9676 606.712 Q68.5272 609.513 68.5272 613.237 Q68.5272 619.379 64.7078 622.562 Q60.8883 625.745 53.5359 625.745 M31.0968 611.009 L31.0968 611.009 Z" fill="#000000" fill-rule="nonzero" fill-opacity="1" /><path clip-path="url(#clip060)" d="M38.7993 556.072 Q34.8526 553.876 32.9747 550.821 Q31.0968 547.765 31.0968 543.628 Q31.0968 538.058 35.0117 535.034 Q38.8948 532.01 46.0881 532.01 L67.6042 532.01 L67.6042 537.898 L46.279 537.898 Q41.1546 537.898 38.672 539.713 Q36.1894 541.527 36.1894 545.251 Q36.1894 549.802 39.2131 552.444 Q42.2368 555.086 47.4567 555.086 L67.6042 555.086 L67.6042 560.974 L46.279 560.974 Q41.1228 560.974 38.672 562.788 Q36.1894 564.603 36.1894 568.39 Q36.1894 572.878 39.2449 575.52 Q42.2686 578.161 47.4567 578.161 L67.6042 578.161 L67.6042 584.05 L31.9562 584.05 L31.9562 578.161 L37.4944 578.161 Q34.216 576.156 32.6564 573.355 Q31.0968 570.554 31.0968 566.703 Q31.0968 562.82 33.0702 560.115 Q35.0436 557.377 38.7993 556.072 Z" fill="#000000" fill-rule="nonzero" fill-opacity="1" /><path clip-path="url(#clip060)" d="M48.3161 489.837 L51.1806 489.837 L51.1806 516.764 Q57.2281 516.382 60.4109 513.136 Q63.5619 509.857 63.5619 504.033 Q63.5619 500.659 62.7344 497.508 Q61.9069 494.325 60.2518 491.206 L65.7899 491.206 Q67.1267 494.357 67.827 497.667 Q68.5272 500.977 68.5272 504.383 Q68.5272 512.913 63.5619 517.91 Q58.5967 522.875 50.1303 522.875 Q41.3774 522.875 36.2531 518.165 Q31.0968 513.422 31.0968 505.401 Q31.0968 498.208 35.7438 494.039 Q40.3589 489.837 48.3161 489.837 M46.5973 495.694 Q41.7912 495.757 38.9266 498.399 Q36.0621 501.009 36.0621 505.338 Q36.0621 510.239 38.8312 513.199 Q41.6002 516.128 46.6292 516.573 L46.5973 495.694 Z" fill="#000000" fill-rule="nonzero" fill-opacity="1" /><path clip-path="url(#clip060)" d="M18.079 460.046 L18.079 446.551 L22.6304 446.551 L22.6304 454.189 L71.6464 454.189 L71.6464 446.551 L76.1979 446.551 L76.1979 460.046 L18.079 460.046 Z" fill="#000000" fill-rule="nonzero" fill-opacity="1" /><path clip-path="url(#clip060)" d="M20.0842 433.819 L20.0842 427.39 L62.1933 427.39 L62.1933 404.25 L67.6042 404.25 L67.6042 433.819 L20.0842 433.819 Z" fill="#000000" fill-rule="nonzero" fill-opacity="1" /><path clip-path="url(#clip060)" d="M18.079 384.071 L76.1979 384.071 L76.1979 397.566 L71.6464 397.566 L71.6464 389.959 L22.6304 389.959 L22.6304 397.566 L18.079 397.566 L18.079 384.071 Z" fill="#000000" fill-rule="nonzero" fill-opacity="1" /><polyline clip-path="url(#clip062)" style="stroke:#009af9; stroke-linecap:round; stroke-linejoin:round; stroke-width:8; stroke-opacity:1; fill:none" points="411.985,1200.97 416.393,1200.97 420.802,1200.97 425.21,1200.97 429.618,1200.97 434.027,1200.97 438.435,1200.97 442.843,1200.97 447.252,1200.97 451.66,1178.72 456.068,1178.72 460.477,1178.72 464.885,1178.72 469.293,1178.72 473.702,1178.72 478.11,1178.72 482.518,1166 486.927,1166 491.335,1133.57 495.743,1133.57 500.152,1133.57 504.56,1133.57 508.968,1133.57 513.377,1133.57 517.785,1133.57 522.193,1133.57 526.602,1117.67 531.01,1117.67 535.418,1089.06 539.827,1089.06 544.235,1089.06 548.643,1089.06 553.052,1089.06 557.46,1089.06 561.868,1089.06 566.277,1089.06 570.685,1063.62 575.093,1047.73 579.501,1031.83 583.91,1031.83 588.318,1031.83 592.726,1031.83 597.135,1031.83 601.543,1031.83 605.951,1031.83 610.36,1031.83 614.768,1031.83 619.176,1031.83 623.585,1031.83 627.993,1031.83 632.401,1031.83 636.81,1031.83 641.218,1031.83 645.626,1031.83 650.035,1031.83 654.443,1031.83 658.851,1031.83 663.26,1031.83 667.668,1031.83 672.076,1031.83 676.485,1031.83 680.893,1031.83 685.301,1031.83 689.71,1031.83 694.118,1019.75 698.526,1019.75 702.935,1019.75 707.343,1019.75 711.751,1019.75 716.16,1019.75 720.568,1019.75 724.976,1007.03 729.385,940.26 733.793,886.209 738.201,707.206 742.61,566.356 747.018,561.587 751.426,561.587 755.835,523.434 760.243,501.178 764.651,501.178 769.06,383.538 773.468,341.569 777.876,331.395 782.285,328.215 786.693,328.215 791.101,328.215 795.51,324.4 799.918,324.4 804.326,324.4 808.735,324.4 813.143,295.149 817.551,225.519 821.96,206.442 826.368,206.442 830.776,206.442 835.185,206.442 839.593,206.442 844.001,206.442 848.41,206.442 852.818,206.442 857.226,206.442 861.635,206.442 866.043,206.442 870.451,206.442 874.86,206.442 879.268,206.442 883.676,206.442 888.085,206.442 892.493,206.442 896.901,206.442 901.31,206.442 905.718,206.442 910.126,206.442 914.535,206.442 918.943,206.442 923.351,206.442 927.76,206.442 932.168,206.442 936.576,206.442 940.985,206.442 945.393,206.442 949.801,206.442 954.21,206.442 958.618,206.442 963.026,206.442 967.435,206.442 971.843,206.442 976.251,206.442 980.659,206.442 985.068,206.442 989.476,206.442 993.884,206.442 998.293,206.442 1002.7,206.442 1007.11,206.442 1011.52,206.442 1015.93,206.442 1020.33,206.442 1024.74,206.442 1029.15,206.442 1033.56,206.442 1037.97,206.442 1042.38,206.442 1046.78,206.442 1051.19,206.442 1055.6,206.442 1060.01,206.442 1064.42,206.442 1068.83,206.442 1073.23,212.602 1077.64,218.761 1082.05,224.921 1086.46,231.08 1090.87,237.24 1095.28,243.399 1099.68,249.558 1104.09,80.8479 1108.5,87.0073 1112.91,93.1667 1117.32,99.3261 1121.73,105.486 1126.13,111.645 1130.54,117.804 1134.95,123.964 1139.36,130.123 1143.77,136.283 1148.18,142.442 1152.58,148.601 1156.99,154.761 1161.4,160.92 1165.81,167.08 1170.22,173.239 1174.63,179.398 1179.03,185.558 1183.44,191.717 1187.85,197.877 1192.26,204.036 1196.67,210.195 1201.08,216.355 1205.48,222.514 1209.89,228.674 1214.3,234.833 1218.71,240.993 1223.12,247.152 1227.53,253.311 1231.93,259.471 1236.34,265.63 1240.75,271.79 1245.16,277.949 1249.57,284.108 1253.98,290.268 1258.38,296.427 1262.79,302.587 1267.2,308.746 1271.61,314.905 1276.02,321.065 1280.43,327.224 1284.83,333.384 1289.24,339.543 1293.65,345.702 1298.06,351.862 1302.47,358.021 1306.88,364.181 1311.28,370.34 1315.69,376.5 1320.1,382.659 1324.51,388.818 1328.92,394.978 1333.33,401.137 1337.73,407.297 1342.14,413.456 1346.55,419.615 1350.96,425.775 1355.37,431.934 1359.78,438.094 1364.18,444.253 1368.59,450.412 1373,456.572 1377.41,462.731 1381.82,468.891 1386.23,475.05 1390.63,481.209 1395.04,487.369 1399.45,493.528 1403.86,499.688 1408.27,505.847 1412.68,512.006 1417.08,518.166 1421.49,524.325 1425.9,530.485 1430.31,536.644 1434.72,542.804 1439.13,548.963 1443.53,555.122 1447.94,561.282 1452.35,567.441 1456.76,573.601 1461.17,579.76 1465.58,585.919 1469.98,592.079 1474.39,598.238 1478.8,604.398 1483.21,610.557 1487.62,616.716 1492.03,622.876 1496.43,629.035 1500.84,635.195 1505.25,641.354 1509.66,647.513 1514.07,653.673 1518.48,659.832 1522.88,665.992 1527.29,672.151 1531.7,678.311 1536.11,684.47 1540.52,690.629 1544.93,696.789 1549.33,702.948 1553.74,709.108 1558.15,715.267 1562.56,721.426 1566.97,727.586 1571.38,733.745 1575.78,739.905 1580.19,746.064 1584.6,752.223 1589.01,758.383 1593.42,764.542 1597.83,770.702 1602.23,776.861 1606.64,783.02 1611.05,789.18 1615.46,795.339 1619.87,801.499 1624.28,798.12 1628.68,804.279 1633.09,810.439 1637.5,816.598 1641.91,822.757 1646.32,828.917 1650.73,835.076 1655.13,841.236 1659.54,847.395 1663.95,847.196 1668.36,853.355 1672.77,859.514 1677.18,865.674 1681.58,871.833 1685.99,877.993 1690.4,884.152 1694.81,890.311 1699.22,896.471 1703.63,902.63 1708.03,908.79 1712.44,914.949 1716.85,921.108 1721.26,927.268 1725.67,933.427 1730.08,939.587 1734.48,945.746 1738.89,951.905 1743.3,958.065 1747.71,964.224 1752.12,970.384 1756.53,976.543 1760.93,982.702 1765.34,988.862 1769.75,995.021 1774.16,1001.18 1778.57,1007.34 1782.98,1013.5 1787.38,1019.66 1791.79,1025.82 1796.2,1031.98 1800.61,1038.14 1805.02,1044.3 1809.43,1050.46 1813.83,1056.62 1818.24,1062.77 1822.65,1068.93 1827.06,1075.09 1831.47,1081.25 1835.88,1087.41 1840.28,1093.57 1844.69,1099.73 1849.1,1105.89 1853.51,1112.05 1857.92,1118.21 1862.33,1124.37 1866.73,1130.53 1871.14,1136.69 1875.55,1142.85 1879.96,1149.01 1884.37,1155.17 1888.78,1161.33 1893.18,1167.48 1897.59,1173.64 1902,1179.8 1906.41,1157.35 1910.82,1163.51 1915.23,1169.67 1919.63,1175.83 1924.04,1181.99 1928.45,1188.14 1932.86,1194.3 1937.27,1200.46 1941.68,1200.97 1946.08,1200.97 1950.49,1200.97 1954.9,1200.97 1959.31,1200.97 1963.72,1200.97 1968.13,1172.16 1972.53,1178.32 1976.94,1105.63 1981.35,1088.9 1985.76,1095.06 1990.17,1101.21 1994.58,1107.37 1998.98,1113.53 2003.39,1119.69 2007.8,1125.85 2012.21,1085.59 2016.62,1091.75 "/>
<line clip-path="url(#clip062)" x1="1941.68" y1="1200.97" x2="1917.68" y2="1176.97" style="stroke:#ff0000; stroke-width:2.688; stroke-opacity:1"/>
<line clip-path="url(#clip062)" x1="1941.68" y1="1200.97" x2="1917.68" y2="1224.97" style="stroke:#ff0000; stroke-width:2.688; stroke-opacity:1"/>
<line clip-path="url(#clip062)" x1="1941.68" y1="1200.97" x2="1965.68" y2="1224.97" style="stroke:#ff0000; stroke-width:2.688; stroke-opacity:1"/>
<line clip-path="url(#clip062)" x1="1941.68" y1="1200.97" x2="1965.68" y2="1176.97" style="stroke:#ff0000; stroke-width:2.688; stroke-opacity:1"/>
<line clip-path="url(#clip062)" x1="1946.08" y1="1200.97" x2="1922.08" y2="1176.97" style="stroke:#ff0000; stroke-width:2.688; stroke-opacity:1"/>
<line clip-path="url(#clip062)" x1="1946.08" y1="1200.97" x2="1922.08" y2="1224.97" style="stroke:#ff0000; stroke-width:2.688; stroke-opacity:1"/>
<line clip-path="url(#clip062)" x1="1946.08" y1="1200.97" x2="1970.08" y2="1224.97" style="stroke:#ff0000; stroke-width:2.688; stroke-opacity:1"/>
<line clip-path="url(#clip062)" x1="1946.08" y1="1200.97" x2="1970.08" y2="1176.97" style="stroke:#ff0000; stroke-width:2.688; stroke-opacity:1"/>
<line clip-path="url(#clip062)" x1="1950.49" y1="1200.97" x2="1926.49" y2="1176.97" style="stroke:#ff0000; stroke-width:2.688; stroke-opacity:1"/>
<line clip-path="url(#clip062)" x1="1950.49" y1="1200.97" x2="1926.49" y2="1224.97" style="stroke:#ff0000; stroke-width:2.688; stroke-opacity:1"/>
<line clip-path="url(#clip062)" x1="1950.49" y1="1200.97" x2="1974.49" y2="1224.97" style="stroke:#ff0000; stroke-width:2.688; stroke-opacity:1"/>
<line clip-path="url(#clip062)" x1="1950.49" y1="1200.97" x2="1974.49" y2="1176.97" style="stroke:#ff0000; stroke-width:2.688; stroke-opacity:1"/>
<line clip-path="url(#clip062)" x1="1954.9" y1="1200.97" x2="1930.9" y2="1176.97" style="stroke:#ff0000; stroke-width:2.688; stroke-opacity:1"/>
<line clip-path="url(#clip062)" x1="1954.9" y1="1200.97" x2="1930.9" y2="1224.97" style="stroke:#ff0000; stroke-width:2.688; stroke-opacity:1"/>
<line clip-path="url(#clip062)" x1="1954.9" y1="1200.97" x2="1978.9" y2="1224.97" style="stroke:#ff0000; stroke-width:2.688; stroke-opacity:1"/>
<line clip-path="url(#clip062)" x1="1954.9" y1="1200.97" x2="1978.9" y2="1176.97" style="stroke:#ff0000; stroke-width:2.688; stroke-opacity:1"/>
<line clip-path="url(#clip062)" x1="1959.31" y1="1200.97" x2="1935.31" y2="1176.97" style="stroke:#ff0000; stroke-width:2.688; stroke-opacity:1"/>
<line clip-path="url(#clip062)" x1="1959.31" y1="1200.97" x2="1935.31" y2="1224.97" style="stroke:#ff0000; stroke-width:2.688; stroke-opacity:1"/>
<line clip-path="url(#clip062)" x1="1959.31" y1="1200.97" x2="1983.31" y2="1224.97" style="stroke:#ff0000; stroke-width:2.688; stroke-opacity:1"/>
<line clip-path="url(#clip062)" x1="1959.31" y1="1200.97" x2="1983.31" y2="1176.97" style="stroke:#ff0000; stroke-width:2.688; stroke-opacity:1"/>
<line clip-path="url(#clip062)" x1="1963.72" y1="1200.97" x2="1939.72" y2="1176.97" style="stroke:#ff0000; stroke-width:2.688; stroke-opacity:1"/>
<line clip-path="url(#clip062)" x1="1963.72" y1="1200.97" x2="1939.72" y2="1224.97" style="stroke:#ff0000; stroke-width:2.688; stroke-opacity:1"/>
<line clip-path="url(#clip062)" x1="1963.72" y1="1200.97" x2="1987.72" y2="1224.97" style="stroke:#ff0000; stroke-width:2.688; stroke-opacity:1"/>
<line clip-path="url(#clip062)" x1="1963.72" y1="1200.97" x2="1987.72" y2="1176.97" style="stroke:#ff0000; stroke-width:2.688; stroke-opacity:1"/>
<path clip-path="url(#clip060)" d="M1541.3 242.342 L2008.06 242.342 L2008.06 86.8219 L1541.3 86.8219  Z" fill="#ffffff" fill-rule="evenodd" fill-opacity="1"/>
<polyline clip-path="url(#clip060)" style="stroke:#000000; stroke-linecap:round; stroke-linejoin:round; stroke-width:4; stroke-opacity:1; fill:none" points="1541.3,242.342 2008.06,242.342 2008.06,86.8219 1541.3,86.8219 1541.3,242.342 "/>
<polyline clip-path="url(#clip060)" style="stroke:#009af9; stroke-linecap:round; stroke-linejoin:round; stroke-width:8; stroke-opacity:1; fill:none" points="1560.2,138.662 1673.6,138.662 "/>
<path clip-path="url(#clip060)" d="M1692.49 121.382 L1721.73 121.382 L1721.73 125.317 L1709.46 125.317 L1709.46 155.942 L1704.76 155.942 L1704.76 125.317 L1692.49 125.317 L1692.49 121.382 Z" fill="#000000" fill-rule="nonzero" fill-opacity="1" /><path clip-path="url(#clip060)" d="M1729.99 142.91 Q1724.83 142.91 1722.84 144.09 Q1720.85 145.271 1720.85 148.118 Q1720.85 150.386 1722.33 151.729 Q1723.84 153.048 1726.41 153.048 Q1729.95 153.048 1732.08 150.548 Q1734.23 148.025 1734.23 143.859 L1734.23 142.91 L1729.99 142.91 M1738.49 141.15 L1738.49 155.942 L1734.23 155.942 L1734.23 152.007 Q1732.77 154.368 1730.6 155.502 Q1728.42 156.613 1725.27 156.613 Q1721.29 156.613 1718.93 154.391 Q1716.59 152.146 1716.59 148.396 Q1716.59 144.021 1719.51 141.798 Q1722.45 139.576 1728.26 139.576 L1734.23 139.576 L1734.23 139.16 Q1734.23 136.22 1732.29 134.623 Q1730.37 133.002 1726.87 133.002 Q1724.65 133.002 1722.54 133.535 Q1720.43 134.067 1718.49 135.132 L1718.49 131.197 Q1720.83 130.294 1723.03 129.854 Q1725.23 129.391 1727.31 129.391 Q1732.93 129.391 1735.71 132.308 Q1738.49 135.224 1738.49 141.15 Z" fill="#000000" fill-rule="nonzero" fill-opacity="1" /><path clip-path="url(#clip060)" d="M1768.81 140.294 L1768.81 155.942 L1764.55 155.942 L1764.55 140.433 Q1764.55 136.752 1763.12 134.924 Q1761.68 133.095 1758.81 133.095 Q1755.36 133.095 1753.37 135.294 Q1751.38 137.493 1751.38 141.289 L1751.38 155.942 L1747.1 155.942 L1747.1 130.016 L1751.38 130.016 L1751.38 134.044 Q1752.91 131.706 1754.97 130.549 Q1757.05 129.391 1759.76 129.391 Q1764.23 129.391 1766.52 132.169 Q1768.81 134.924 1768.81 140.294 Z" fill="#000000" fill-rule="nonzero" fill-opacity="1" /><path clip-path="url(#clip060)" d="M1777.15 119.924 L1781.43 119.924 L1781.43 141.197 L1794.14 130.016 L1799.58 130.016 L1785.83 142.146 L1800.16 155.942 L1794.6 155.942 L1781.43 143.28 L1781.43 155.942 L1777.15 155.942 L1777.15 119.924 Z" fill="#000000" fill-rule="nonzero" fill-opacity="1" /><path clip-path="url(#clip060)" d="M1828.93 155.942 L1815.73 121.382 L1820.62 121.382 L1831.57 150.479 L1842.54 121.382 L1847.4 121.382 L1834.23 155.942 L1828.93 155.942 Z" fill="#000000" fill-rule="nonzero" fill-opacity="1" /><path clip-path="url(#clip060)" d="M1858.63 133.002 Q1855.2 133.002 1853.21 135.687 Q1851.22 138.349 1851.22 143.002 Q1851.22 147.655 1853.19 150.34 Q1855.18 153.002 1858.63 153.002 Q1862.03 153.002 1864.02 150.317 Q1866.01 147.632 1866.01 143.002 Q1866.01 138.396 1864.02 135.711 Q1862.03 133.002 1858.63 133.002 M1858.63 129.391 Q1864.18 129.391 1867.36 133.002 Q1870.53 136.613 1870.53 143.002 Q1870.53 149.368 1867.36 153.002 Q1864.18 156.613 1858.63 156.613 Q1853.05 156.613 1849.88 153.002 Q1846.73 149.368 1846.73 143.002 Q1846.73 136.613 1849.88 133.002 Q1853.05 129.391 1858.63 129.391 Z" fill="#000000" fill-rule="nonzero" fill-opacity="1" /><path clip-path="url(#clip060)" d="M1877.59 119.924 L1881.85 119.924 L1881.85 155.942 L1877.59 155.942 L1877.59 119.924 Z" fill="#000000" fill-rule="nonzero" fill-opacity="1" /><path clip-path="url(#clip060)" d="M1890.32 145.71 L1890.32 130.016 L1894.58 130.016 L1894.58 145.548 Q1894.58 149.229 1896.01 151.081 Q1897.45 152.91 1900.32 152.91 Q1903.77 152.91 1905.76 150.71 Q1907.77 148.511 1907.77 144.715 L1907.77 130.016 L1912.03 130.016 L1912.03 155.942 L1907.77 155.942 L1907.77 151.96 Q1906.22 154.322 1904.16 155.479 Q1902.12 156.613 1899.42 156.613 Q1894.95 156.613 1892.63 153.835 Q1890.32 151.058 1890.32 145.71 M1901.04 129.391 L1901.04 129.391 Z" fill="#000000" fill-rule="nonzero" fill-opacity="1" /><path clip-path="url(#clip060)" d="M1940.99 134.993 Q1942.59 132.123 1944.81 130.757 Q1947.03 129.391 1950.04 129.391 Q1954.09 129.391 1956.29 132.238 Q1958.49 135.062 1958.49 140.294 L1958.49 155.942 L1954.21 155.942 L1954.21 140.433 Q1954.21 136.706 1952.89 134.9 Q1951.57 133.095 1948.86 133.095 Q1945.55 133.095 1943.63 135.294 Q1941.71 137.493 1941.71 141.289 L1941.71 155.942 L1937.42 155.942 L1937.42 140.433 Q1937.42 136.683 1936.1 134.9 Q1934.79 133.095 1932.03 133.095 Q1928.77 133.095 1926.85 135.317 Q1924.92 137.516 1924.92 141.289 L1924.92 155.942 L1920.64 155.942 L1920.64 130.016 L1924.92 130.016 L1924.92 134.044 Q1926.38 131.66 1928.42 130.525 Q1930.46 129.391 1933.26 129.391 Q1936.08 129.391 1938.05 130.826 Q1940.04 132.261 1940.99 134.993 Z" fill="#000000" fill-rule="nonzero" fill-opacity="1" /><path clip-path="url(#clip060)" d="M1989.16 141.914 L1989.16 143.998 L1969.58 143.998 Q1969.85 148.396 1972.22 150.71 Q1974.6 153.002 1978.84 153.002 Q1981.29 153.002 1983.58 152.4 Q1985.9 151.798 1988.16 150.595 L1988.16 154.622 Q1985.87 155.595 1983.47 156.104 Q1981.06 156.613 1978.58 156.613 Q1972.38 156.613 1968.74 153.002 Q1965.13 149.391 1965.13 143.234 Q1965.13 136.868 1968.56 133.141 Q1972.01 129.391 1977.84 129.391 Q1983.07 129.391 1986.1 132.771 Q1989.16 136.127 1989.16 141.914 M1984.9 140.664 Q1984.85 137.169 1982.93 135.086 Q1981.03 133.002 1977.89 133.002 Q1974.32 133.002 1972.17 135.016 Q1970.04 137.03 1969.72 140.687 L1984.9 140.664 Z" fill="#000000" fill-rule="nonzero" fill-opacity="1" /><line clip-path="url(#clip060)" x1="1616.9" y1="190.502" x2="1593.27" y2="166.871" style="stroke:#ff0000; stroke-width:2.64665; stroke-opacity:1"/>
<line clip-path="url(#clip060)" x1="1616.9" y1="190.502" x2="1593.27" y2="214.133" style="stroke:#ff0000; stroke-width:2.64665; stroke-opacity:1"/>
<line clip-path="url(#clip060)" x1="1616.9" y1="190.502" x2="1640.53" y2="214.133" style="stroke:#ff0000; stroke-width:2.64665; stroke-opacity:1"/>
<line clip-path="url(#clip060)" x1="1616.9" y1="190.502" x2="1640.53" y2="166.871" style="stroke:#ff0000; stroke-width:2.64665; stroke-opacity:1"/>
<path clip-path="url(#clip060)" d="M1692.49 173.222 L1712.36 173.222 L1712.36 177.157 L1697.17 177.157 L1697.17 187.342 L1710.87 187.342 L1710.87 191.277 L1697.17 191.277 L1697.17 207.782 L1692.49 207.782 L1692.49 173.222 Z" fill="#000000" fill-rule="nonzero" fill-opacity="1" /><path clip-path="url(#clip060)" d="M1727.01 194.75 Q1721.85 194.75 1719.86 195.93 Q1717.87 197.111 1717.87 199.958 Q1717.87 202.226 1719.35 203.569 Q1720.85 204.888 1723.42 204.888 Q1726.96 204.888 1729.09 202.388 Q1731.24 199.865 1731.24 195.699 L1731.24 194.75 L1727.01 194.75 M1735.5 192.99 L1735.5 207.782 L1731.24 207.782 L1731.24 203.847 Q1729.79 206.208 1727.61 207.342 Q1725.43 208.453 1722.29 208.453 Q1718.3 208.453 1715.94 206.231 Q1713.61 203.986 1713.61 200.236 Q1713.61 195.861 1716.52 193.638 Q1719.46 191.416 1725.27 191.416 L1731.24 191.416 L1731.24 191 Q1731.24 188.06 1729.3 186.463 Q1727.38 184.842 1723.88 184.842 Q1721.66 184.842 1719.55 185.375 Q1717.45 185.907 1715.5 186.972 L1715.5 183.037 Q1717.84 182.134 1720.04 181.694 Q1722.24 181.231 1724.32 181.231 Q1729.95 181.231 1732.73 184.148 Q1735.5 187.064 1735.5 192.99 Z" fill="#000000" fill-rule="nonzero" fill-opacity="1" /><path clip-path="url(#clip060)" d="M1744.28 181.856 L1748.54 181.856 L1748.54 207.782 L1744.28 207.782 L1744.28 181.856 M1744.28 171.764 L1748.54 171.764 L1748.54 177.157 L1744.28 177.157 L1744.28 171.764 Z" fill="#000000" fill-rule="nonzero" fill-opacity="1" /><path clip-path="url(#clip060)" d="M1757.45 171.764 L1761.71 171.764 L1761.71 207.782 L1757.45 207.782 L1757.45 171.764 Z" fill="#000000" fill-rule="nonzero" fill-opacity="1" /><path clip-path="url(#clip060)" d="M1770.18 197.55 L1770.18 181.856 L1774.44 181.856 L1774.44 197.388 Q1774.44 201.069 1775.87 202.921 Q1777.31 204.75 1780.18 204.75 Q1783.63 204.75 1785.62 202.55 Q1787.63 200.351 1787.63 196.555 L1787.63 181.856 L1791.89 181.856 L1791.89 207.782 L1787.63 207.782 L1787.63 203.8 Q1786.08 206.162 1784.02 207.319 Q1781.99 208.453 1779.28 208.453 Q1774.81 208.453 1772.49 205.675 Q1770.18 202.898 1770.18 197.55 M1780.9 181.231 L1780.9 181.231 Z" fill="#000000" fill-rule="nonzero" fill-opacity="1" /><path clip-path="url(#clip060)" d="M1815.69 185.838 Q1814.97 185.421 1814.11 185.236 Q1813.28 185.027 1812.26 185.027 Q1808.65 185.027 1806.71 187.389 Q1804.79 189.726 1804.79 194.125 L1804.79 207.782 L1800.5 207.782 L1800.5 181.856 L1804.79 181.856 L1804.79 185.884 Q1806.13 183.523 1808.28 182.389 Q1810.43 181.231 1813.51 181.231 Q1813.95 181.231 1814.48 181.301 Q1815.02 181.347 1815.67 181.463 L1815.69 185.838 Z" fill="#000000" fill-rule="nonzero" fill-opacity="1" /><path clip-path="url(#clip060)" d="M1841.29 193.754 L1841.29 195.838 L1821.71 195.838 Q1821.98 200.236 1824.35 202.55 Q1826.73 204.842 1830.97 204.842 Q1833.42 204.842 1835.71 204.24 Q1838.03 203.638 1840.29 202.435 L1840.29 206.462 Q1838 207.435 1835.6 207.944 Q1833.19 208.453 1830.71 208.453 Q1824.51 208.453 1820.87 204.842 Q1817.26 201.231 1817.26 195.074 Q1817.26 188.708 1820.69 184.981 Q1824.14 181.231 1829.97 181.231 Q1835.2 181.231 1838.23 184.611 Q1841.29 187.967 1841.29 193.754 M1837.03 192.504 Q1836.98 189.009 1835.06 186.926 Q1833.17 184.842 1830.02 184.842 Q1826.45 184.842 1824.3 186.856 Q1822.17 188.87 1821.85 192.527 L1837.03 192.504 Z" fill="#000000" fill-rule="nonzero" fill-opacity="1" /><path clip-path="url(#clip060)" d="M1864.81 182.62 L1864.81 186.648 Q1863 185.722 1861.06 185.259 Q1859.11 184.796 1857.03 184.796 Q1853.86 184.796 1852.26 185.768 Q1850.69 186.74 1850.69 188.685 Q1850.69 190.166 1851.82 191.023 Q1852.96 191.856 1856.38 192.62 L1857.84 192.944 Q1862.38 193.916 1864.28 195.699 Q1866.2 197.458 1866.2 200.629 Q1866.2 204.24 1863.33 206.347 Q1860.48 208.453 1855.48 208.453 Q1853.4 208.453 1851.13 208.037 Q1848.88 207.643 1846.38 206.833 L1846.38 202.435 Q1848.74 203.662 1851.04 204.287 Q1853.33 204.888 1855.57 204.888 Q1858.58 204.888 1860.2 203.87 Q1861.82 202.828 1861.82 200.953 Q1861.82 199.217 1860.64 198.291 Q1859.48 197.365 1855.53 196.509 L1854.04 196.162 Q1850.09 195.328 1848.33 193.615 Q1846.57 191.879 1846.57 188.87 Q1846.57 185.213 1849.16 183.222 Q1851.75 181.231 1856.52 181.231 Q1858.88 181.231 1860.97 181.578 Q1863.05 181.926 1864.81 182.62 Z" fill="#000000" fill-rule="nonzero" fill-opacity="1" /></svg>
